<?xml version="1.0" encoding="UTF-8" standalone="no"?>
<!-- Created with Inkscape (http://www.inkscape.org/) -->

<svg
   xmlns:dc="http://purl.org/dc/elements/1.1/"
   xmlns:cc="http://creativecommons.org/ns#"
   xmlns:rdf="http://www.w3.org/1999/02/22-rdf-syntax-ns#"
   xmlns:svg="http://www.w3.org/2000/svg"
   xmlns="http://www.w3.org/2000/svg"
   xmlns:sodipodi="http://sodipodi.sourceforge.net/DTD/sodipodi-0.dtd"
   xmlns:inkscape="http://www.inkscape.org/namespaces/inkscape"
   width="48"
   height="48"
   viewBox="0 0 48.000001 48.000001"
   id="svg2"
   version="1.1"
   inkscape:version="0.91 r13725"
   sodipodi:docname="android.svg"
   enable-background="new"
   inkscape:export-filename="/home/emanuel/Prog/java/ltu/m7019e/palm-compute/android/src/main/res/mipmap-mdpi/ic_launcher.png"
   inkscape:export-xdpi="90"
   inkscape:export-ydpi="90">
  <defs
     id="defs4">
    <filter
       inkscape:collect="always"
       style="color-interpolation-filters:sRGB"
       id="filter4338"
       x="-0.1044"
       width="1.2088"
       y="-0.1044"
       height="1.2088">
      <feGaussianBlur
         inkscape:collect="always"
         stdDeviation="1.653"
         id="feGaussianBlur4340" />
    </filter>
    <filter
       inkscape:collect="always"
       style="color-interpolation-filters:sRGB"
       id="filter4699"
       x="-0.071268358"
       width="1.1425367"
       y="-0.065753596"
       height="1.1315072">
      <feGaussianBlur
         inkscape:collect="always"
         stdDeviation="0.29858812"
         id="feGaussianBlur4701" />
    </filter>
  </defs>
  <sodipodi:namedview
     id="base"
     pagecolor="#ffffff"
     bordercolor="#666666"
     borderopacity="1.0"
     inkscape:pageopacity="0.0"
     inkscape:pageshadow="2"
     inkscape:zoom="12.416667"
     inkscape:cx="24"
     inkscape:cy="24"
     inkscape:document-units="px"
     inkscape:current-layer="layer1"
     showgrid="false"
     showguides="false"
     units="px"
     inkscape:window-width="1855"
     inkscape:window-height="1056"
     inkscape:window-x="65"
     inkscape:window-y="24"
     inkscape:window-maximized="1">
    <inkscape:grid
       type="xygrid"
       id="grid3344"
       empspacing="4" />
  </sodipodi:namedview>
  <metadata
     id="metadata7">
    <rdf:RDF>
      <cc:Work
         rdf:about="">
        <dc:format>image/svg+xml</dc:format>
        <dc:type
           rdf:resource="http://purl.org/dc/dcmitype/StillImage" />
        <dc:title />
      </cc:Work>
    </rdf:RDF>
  </metadata>
  <g
     inkscape:label="Background"
     inkscape:groupmode="layer"
     id="layer1"
     transform="translate(0,-1004.3622)"
     style="display:inline;opacity:0.98999999">
    <rect
       rx="3"
       y="1010.3622"
       x="5"
       height="38"
       width="38"
       id="rect4240"
       style="opacity:0.2;fill:#000000;fill-opacity:1;stroke:none;filter:url(#filter4338)" />
    <path
       style="opacity:1;fill:#9c27b0;fill-opacity:1;stroke:none"
       d="M 8 4 A 4 4 0 0 0 4 8 L 4 40 A 4 4 0 0 0 8 44 L 40 44 A 4 4 0 0 0 44 40 L 44 8 A 4 4 0 0 0 40 4 L 8 4 z "
       transform="translate(0,1004.3622)"
       id="rect4171" />
    <path
       style="opacity:0.2;fill:#1a237e;fill-opacity:0.99215686;stroke:none"
       d="M 22 7 A 19 19 0 0 0 4 19.992188 L 4 32.007812 A 19 19 0 0 0 13.566406 43 L 30.470703 43 A 19 19 0 0 0 41 26 A 19 19 0 0 0 22 7 z "
       transform="translate(0,1004.3622)"
       id="rect4276" />
    <path
       style="opacity:0.2;fill:#ffffff;fill-opacity:1;stroke:none"
       d="M 8 4 A 4 4 0 0 0 4 8 L 4 9 A 4 4 0 0 1 8 5 L 40 5 A 4 4 0 0 1 44 9 L 44 8 A 4 4 0 0 0 40 4 L 8 4 z "
       transform="translate(0,1004.3622)"
       id="path4323" />
    <path
       style="opacity:0.2;fill:#1a237e;fill-opacity:0.99215686;stroke:none"
       d="M 4 39 L 4 40 A 4 4 0 0 0 8 44 L 40 44 A 4 4 0 0 0 44 40 L 44 39 A 4 4 0 0 1 40 43 L 8 43 A 4 4 0 0 1 4 39 z "
       transform="translate(0,1004.3622)"
       id="path4328" />
  </g>
  <g
     inkscape:groupmode="layer"
     id="layer2"
     inkscape:label="Logo Old"
     style="display:none">
    <path
       sodipodi:nodetypes="csccccccscccccc"
       inkscape:connector-curvature="0"
       id="path4369"
       d="m 24,24.750557 c -3.004869,0 -5.449219,2.44435 -5.449219,5.449219 0,3.004869 2.44435,5.449219 5.449219,5.449219 1.820589,-0.002 3.522056,-0.912349 4.53125,-2.427735 0.137346,-0.205574 0.07948,-0.490908 -0.126953,-0.626953 L 27.570312,32.03962 c -0.205574,-0.137349 -0.490908,-0.07948 -0.626953,0.126953 -0.656804,0.986055 -1.75863,1.580862 -2.943359,1.583984 -1.966286,0 -3.550781,-1.584495 -3.550781,-3.550781 0,-1.966286 1.584495,-3.550781 3.550781,-3.550781 1.185346,0.0026 2.288172,0.597428 2.945312,1.583984 0.136045,0.206438 0.42138,0.264295 0.626954,0.126953 l 0.828125,-0.550781 c 0.206438,-0.136045 0.264295,-0.42138 0.126953,-0.626953 C 27.51995,25.666427 25.819872,24.754917 24,24.750557 Z"
       style="color:#000000;font-style:normal;font-variant:normal;font-weight:normal;font-stretch:normal;font-size:medium;line-height:normal;font-family:sans-serif;text-indent:0;text-align:start;text-decoration:none;text-decoration-line:none;text-decoration-style:solid;text-decoration-color:#000000;letter-spacing:normal;word-spacing:normal;text-transform:none;direction:ltr;block-progression:tb;writing-mode:lr-tb;baseline-shift:baseline;text-anchor:start;white-space:normal;clip-rule:nonzero;display:inline;overflow:visible;visibility:visible;opacity:0.175;isolation:auto;mix-blend-mode:normal;color-interpolation:sRGB;color-interpolation-filters:linearRGB;solid-color:#000000;solid-opacity:1;fill:#000000;fill-opacity:1;fill-rule:evenodd;stroke:none;stroke-width:0.40000001;stroke-linecap:butt;stroke-linejoin:round;stroke-miterlimit:4;stroke-dasharray:none;stroke-dashoffset:0;stroke-opacity:1;filter:url(#filter4699);color-rendering:auto;image-rendering:auto;shape-rendering:auto;text-rendering:auto;enable-background:accumulate" />
    <path
       style="color:#000000;font-style:normal;font-variant:normal;font-weight:normal;font-stretch:normal;font-size:medium;line-height:normal;font-family:sans-serif;text-indent:0;text-align:start;text-decoration:none;text-decoration-line:none;text-decoration-style:solid;text-decoration-color:#000000;letter-spacing:normal;word-spacing:normal;text-transform:none;direction:ltr;block-progression:tb;writing-mode:lr-tb;baseline-shift:baseline;text-anchor:start;white-space:normal;clip-rule:nonzero;display:inline;overflow:visible;visibility:visible;opacity:1;isolation:auto;mix-blend-mode:normal;color-interpolation:sRGB;color-interpolation-filters:linearRGB;solid-color:#000000;solid-opacity:1;fill:#ffffff;fill-opacity:1;fill-rule:evenodd;stroke:none;stroke-width:0.40000001;stroke-linecap:butt;stroke-linejoin:round;stroke-miterlimit:4;stroke-dasharray:none;stroke-dashoffset:0;stroke-opacity:1;color-rendering:auto;image-rendering:auto;shape-rendering:auto;text-rendering:auto;enable-background:accumulate"
       d="m 24,24.550781 c -3.004869,0 -5.449219,2.44435 -5.449219,5.449219 0,3.004869 2.44435,5.449219 5.449219,5.449219 1.820589,-0.002 3.522056,-0.912349 4.53125,-2.427735 0.137346,-0.205574 0.07948,-0.490908 -0.126953,-0.626953 l -0.833985,-0.554687 c -0.205574,-0.137349 -0.490908,-0.07948 -0.626953,0.126953 -0.656804,0.986055 -1.75863,1.580862 -2.943359,1.583984 -1.966286,0 -3.550781,-1.584495 -3.550781,-3.550781 0,-1.966286 1.584495,-3.550781 3.550781,-3.550781 1.185346,0.0026 2.288172,0.597428 2.945312,1.583984 0.136045,0.206438 0.42138,0.264295 0.626954,0.126953 l 0.828125,-0.550781 c 0.206438,-0.136045 0.264295,-0.42138 0.126953,-0.626953 C 27.51995,25.466651 25.819872,24.555141 24,24.550781 Z"
       id="path4176"
       inkscape:connector-curvature="0"
       sodipodi:nodetypes="csccccccscccccc" />
    <text
       xml:space="preserve"
       style="font-style:normal;font-weight:normal;font-size:40px;line-height:125%;font-family:Sans;letter-spacing:0px;word-spacing:0px;fill:#000000;fill-opacity:1;stroke:none;stroke-width:1px;stroke-linecap:butt;stroke-linejoin:miter;stroke-opacity:1"
       x="8"
       y="20"
       id="text4200"
       sodipodi:linespacing="125%"><tspan
         sodipodi:role="line"
         id="tspan4202"
         x="8"
         y="20" /></text>
  </g>
  <g
     inkscape:groupmode="layer"
     id="layer3"
     inkscape:label="Logo"
     style="display:none" />
  <rect
     style="opacity:1;fill:#ffffff;fill-opacity:1;stroke:none;stroke-width:1;stroke-linejoin:round;stroke-miterlimit:4;stroke-dasharray:none;stroke-opacity:1"
     id="rect4342"
     width="3"
     height="27"
     x="13"
     y="17" />
  <path
     style="opacity:1;fill:#ffffff;fill-opacity:1;stroke:none;stroke-width:0.40000001;stroke-linejoin:round;stroke-miterlimit:4;stroke-dasharray:none;stroke-opacity:1"
     d="m 22,17 c -4.358725,0 -7.991466,3.098371 -8.820312,7.212891 -0.05815,0.288651 -0.103007,0.582926 -0.132813,0.880859 C 13.017042,25.391948 13,25.693945 13,26 c 0.0037,2.556567 1.094443,4.990935 3,6.695312 l 0,-0.002 c 1.647869,1.481252 3.784247,2.302561 6,2.306641 2.831441,-0.0034 5.496216,-1.339024 7.193359,-3.605469 L 26.794922,29.595703 C 25.663767,31.106729 23.887513,31.997388 22,32 c -3.313708,0 -6,-2.686292 -6,-6 0,-3.313708 2.686292,-6 6,-6 1.887513,0.0026 3.663767,0.893271 4.794922,2.404297 l 2.396484,-1.796875 C 27.495084,18.34079 24.831097,17.004455 22,17 Z"
     id="path4236"
     inkscape:connector-curvature="0" />
</svg>
