<?xml version="1.0" encoding="UTF-8" standalone="no"?>
<!-- Created with Inkscape (http://www.inkscape.org/) -->

<svg
   xmlns:dc="http://purl.org/dc/elements/1.1/"
   xmlns:cc="http://creativecommons.org/ns#"
   xmlns:rdf="http://www.w3.org/1999/02/22-rdf-syntax-ns#"
   xmlns:svg="http://www.w3.org/2000/svg"
   xmlns="http://www.w3.org/2000/svg"
   xmlns:xlink="http://www.w3.org/1999/xlink"
   xmlns:sodipodi="http://sodipodi.sourceforge.net/DTD/sodipodi-0.dtd"
   xmlns:inkscape="http://www.inkscape.org/namespaces/inkscape"
   width="48"
   height="48"
   viewBox="0 0 48.000001 48.000001"
   id="svg2"
   version="1.1"
   inkscape:version="0.91 r13725"
   sodipodi:docname="android.svg"
   enable-background="new"
   inkscape:export-filename="/home/emanuel/Prog/java/ltu/m7019e/palm-compute/android/src/main/res/mipmap-xxxhdpi/ic_launcher.png"
   inkscape:export-xdpi="360"
   inkscape:export-ydpi="360">
  <defs
     id="defs4">
    <linearGradient
       inkscape:collect="always"
       id="linearGradient4359">
      <stop
         style="stop-color:#966ef8;stop-opacity:0.2278481"
         offset="0"
         id="stop4361" />
      <stop
         style="stop-color:#ffaeae;stop-opacity:0.6898734"
         offset="1"
         id="stop4363" />
    </linearGradient>
    <filter
       inkscape:collect="always"
       style="color-interpolation-filters:sRGB"
       id="filter4338"
       x="-0.1044"
       width="1.2088"
       y="-0.1044"
       height="1.2088">
      <feGaussianBlur
         inkscape:collect="always"
         stdDeviation="1.653"
         id="feGaussianBlur4340" />
    </filter>
    <linearGradient
       inkscape:collect="always"
       xlink:href="#linearGradient4359"
       id="linearGradient4365"
       x1="2"
       y1="1006.3622"
       x2="46"
       y2="1050.3622"
       gradientUnits="userSpaceOnUse" />
    <filter
       inkscape:collect="always"
       style="color-interpolation-filters:sRGB"
       id="filter4699"
       x="-0.071268358"
       width="1.1425367"
       y="-0.065753596"
       height="1.1315072">
      <feGaussianBlur
         inkscape:collect="always"
         stdDeviation="0.29858812"
         id="feGaussianBlur4701" />
    </filter>
  </defs>
  <sodipodi:namedview
     id="base"
     pagecolor="#ffffff"
     bordercolor="#666666"
     borderopacity="1.0"
     inkscape:pageopacity="0.0"
     inkscape:pageshadow="2"
     inkscape:zoom="1.4142136"
     inkscape:cx="-161.08086"
     inkscape:cy="90.486761"
     inkscape:document-units="px"
     inkscape:current-layer="layer1"
     showgrid="false"
     showguides="true"
     units="px"
     inkscape:window-width="1855"
     inkscape:window-height="1056"
     inkscape:window-x="65"
     inkscape:window-y="24"
     inkscape:window-maximized="1">
    <inkscape:grid
       type="xygrid"
       id="grid3344"
       empspacing="4" />
  </sodipodi:namedview>
  <metadata
     id="metadata7">
    <rdf:RDF>
      <cc:Work
         rdf:about="">
        <dc:format>image/svg+xml</dc:format>
        <dc:type
           rdf:resource="http://purl.org/dc/dcmitype/StillImage" />
        <dc:title></dc:title>
      </cc:Work>
    </rdf:RDF>
  </metadata>
  <g
     inkscape:label="Layer 1"
     inkscape:groupmode="layer"
     id="layer1"
     transform="translate(0,-1004.3622)"
     style="display:inline">
    <rect
       rx="3"
       y="1010.3622"
       x="5"
       height="38"
       width="38"
       id="rect4240"
       style="opacity:0.2;fill:#000000;fill-opacity:1;stroke:none;filter:url(#filter4338)" />
    <rect
       style="opacity:1;fill:#90357b;fill-opacity:1;stroke:none"
       id="rect4171"
       width="38"
       height="38"
       x="5"
       y="1009.3622"
       rx="3" />
    <path
       style="opacity:0.2;fill:#ffffff;fill-opacity:1;stroke:none"
       d="M 8,5 C 6.338,5 5,6.338 5,8 L 5,9 C 5,7.338 6.338,6 8,6 l 32,0 c 1.662,0 3,1.338 3,3 L 43,8 C 43,6.338 41.662,5 40,5 L 8,5 Z"
       transform="translate(0,1004.3622)"
       id="rect4230"
       inkscape:connector-curvature="0" />
    <path
       style="opacity:0.07399998;fill:#d485c4;fill-opacity:1;stroke:none"
       d="M 24,10 A 20,20 0 0 0 5,23.794922 L 5,36.166016 A 20,20 0 0 0 8.8320312,43 L 39.189453,43 A 20,20 0 0 0 43,36.205078 L 43,23.833984 A 20,20 0 0 0 24,10 Z"
       transform="translate(0,1004.3622)"
       id="rect4344"
       inkscape:connector-curvature="0" />
    <path
       style="opacity:0.2;fill:#512d47;fill-opacity:1;stroke:none"
       d="m 5,39 0,1 c 0,1.662 1.338,3 3,3 l 32,0 c 1.662,0 3,-1.338 3,-3 l 0,-1 c 0,1.662 -1.338,3 -3,3 L 8,42 C 6.338,42 5,40.662 5,39 Z"
       transform="translate(0,1004.3622)"
       id="rect4235"
       inkscape:connector-curvature="0" />
    <rect
       rx="3"
       y="1009.3622"
       x="5"
       height="38"
       width="38"
       id="rect4357"
       style="opacity:0.681;fill:url(#linearGradient4365);fill-opacity:1;stroke:none" />
  </g>
  <g
     inkscape:groupmode="layer"
     id="layer2"
     inkscape:label="Hand"
     style="display:inline">
    <path
       sodipodi:nodetypes="csccccccscccccc"
       inkscape:connector-curvature="0"
       id="path4369"
       d="m 24,24.750557 c -3.004869,0 -5.449219,2.44435 -5.449219,5.449219 0,3.004869 2.44435,5.449219 5.449219,5.449219 1.820589,-0.002 3.522056,-0.912349 4.53125,-2.427735 0.137346,-0.205574 0.07948,-0.490908 -0.126953,-0.626953 L 27.570312,32.03962 c -0.205574,-0.137349 -0.490908,-0.07948 -0.626953,0.126953 -0.656804,0.986055 -1.75863,1.580862 -2.943359,1.583984 -1.966286,0 -3.550781,-1.584495 -3.550781,-3.550781 0,-1.966286 1.584495,-3.550781 3.550781,-3.550781 1.185346,0.0026 2.288172,0.597428 2.945312,1.583984 0.136045,0.206438 0.42138,0.264295 0.626954,0.126953 l 0.828125,-0.550781 c 0.206438,-0.136045 0.264295,-0.42138 0.126953,-0.626953 C 27.51995,25.666427 25.819872,24.754917 24,24.750557 Z"
       style="color:#000000;font-style:normal;font-variant:normal;font-weight:normal;font-stretch:normal;font-size:medium;line-height:normal;font-family:sans-serif;text-indent:0;text-align:start;text-decoration:none;text-decoration-line:none;text-decoration-style:solid;text-decoration-color:#000000;letter-spacing:normal;word-spacing:normal;text-transform:none;direction:ltr;block-progression:tb;writing-mode:lr-tb;baseline-shift:baseline;text-anchor:start;white-space:normal;clip-rule:nonzero;display:inline;overflow:visible;visibility:visible;opacity:0.175;isolation:auto;mix-blend-mode:normal;color-interpolation:sRGB;color-interpolation-filters:linearRGB;solid-color:#000000;solid-opacity:1;fill:#000000;fill-opacity:1;fill-rule:evenodd;stroke:none;stroke-width:0.40000001;stroke-linecap:butt;stroke-linejoin:round;stroke-miterlimit:4;stroke-dasharray:none;stroke-dashoffset:0;stroke-opacity:1;filter:url(#filter4699);color-rendering:auto;image-rendering:auto;shape-rendering:auto;text-rendering:auto;enable-background:accumulate" />
    <path
       style="color:#000000;font-style:normal;font-variant:normal;font-weight:normal;font-stretch:normal;font-size:medium;line-height:normal;font-family:sans-serif;text-indent:0;text-align:start;text-decoration:none;text-decoration-line:none;text-decoration-style:solid;text-decoration-color:#000000;letter-spacing:normal;word-spacing:normal;text-transform:none;direction:ltr;block-progression:tb;writing-mode:lr-tb;baseline-shift:baseline;text-anchor:start;white-space:normal;clip-rule:nonzero;display:inline;overflow:visible;visibility:visible;opacity:1;isolation:auto;mix-blend-mode:normal;color-interpolation:sRGB;color-interpolation-filters:linearRGB;solid-color:#000000;solid-opacity:1;fill:#ffffff;fill-opacity:1;fill-rule:evenodd;stroke:none;stroke-width:0.40000001;stroke-linecap:butt;stroke-linejoin:round;stroke-miterlimit:4;stroke-dasharray:none;stroke-dashoffset:0;stroke-opacity:1;color-rendering:auto;image-rendering:auto;shape-rendering:auto;text-rendering:auto;enable-background:accumulate"
       d="m 24,24.550781 c -3.004869,0 -5.449219,2.44435 -5.449219,5.449219 0,3.004869 2.44435,5.449219 5.449219,5.449219 1.820589,-0.002 3.522056,-0.912349 4.53125,-2.427735 0.137346,-0.205574 0.07948,-0.490908 -0.126953,-0.626953 l -0.833985,-0.554687 c -0.205574,-0.137349 -0.490908,-0.07948 -0.626953,0.126953 -0.656804,0.986055 -1.75863,1.580862 -2.943359,1.583984 -1.966286,0 -3.550781,-1.584495 -3.550781,-3.550781 0,-1.966286 1.584495,-3.550781 3.550781,-3.550781 1.185346,0.0026 2.288172,0.597428 2.945312,1.583984 0.136045,0.206438 0.42138,0.264295 0.626954,0.126953 l 0.828125,-0.550781 c 0.206438,-0.136045 0.264295,-0.42138 0.126953,-0.626953 C 27.51995,25.466651 25.819872,24.555141 24,24.550781 Z"
       id="path4176"
       inkscape:connector-curvature="0"
       sodipodi:nodetypes="csccccccscccccc" />
    <text
       xml:space="preserve"
       style="font-style:normal;font-weight:normal;font-size:40px;line-height:125%;font-family:Sans;letter-spacing:0px;word-spacing:0px;fill:#000000;fill-opacity:1;stroke:none;stroke-width:1px;stroke-linecap:butt;stroke-linejoin:miter;stroke-opacity:1"
       x="8"
       y="20"
       id="text4200"
       sodipodi:linespacing="125%"><tspan
         sodipodi:role="line"
         id="tspan4202"
         x="8"
         y="20" /></text>
  </g>
</svg>
