<?xml version="1.0" encoding="UTF-8" standalone="no"?>
<!-- Created with Inkscape (http://www.inkscape.org/) -->

<svg
   xmlns:dc="http://purl.org/dc/elements/1.1/"
   xmlns:cc="http://creativecommons.org/ns#"
   xmlns:rdf="http://www.w3.org/1999/02/22-rdf-syntax-ns#"
   xmlns:svg="http://www.w3.org/2000/svg"
   xmlns="http://www.w3.org/2000/svg"
   xmlns:sodipodi="http://sodipodi.sourceforge.net/DTD/sodipodi-0.dtd"
   xmlns:inkscape="http://www.inkscape.org/namespaces/inkscape"
   width="48"
   height="48"
   viewBox="0 0 48.000001 48.000001"
   id="svg2"
   version="1.1"
   inkscape:version="0.91 r13725"
   sodipodi:docname="android.svg"
   enable-background="new"
   inkscape:export-filename="/home/emanuel/Prog/java/ltu/m7019e/palm-compute/android/src/main/res/mipmap-mdpi/ic_launcher.png"
   inkscape:export-xdpi="90"
   inkscape:export-ydpi="90">
  <defs
     id="defs4">
    <filter
       inkscape:collect="always"
       style="color-interpolation-filters:sRGB"
       id="filter4338"
       x="-0.1044"
       width="1.2088"
       y="-0.1044"
       height="1.2088">
      <feGaussianBlur
         inkscape:collect="always"
         stdDeviation="1.653"
         id="feGaussianBlur4340" />
    </filter>
    <filter
       inkscape:collect="always"
       style="color-interpolation-filters:sRGB"
       id="filter4699"
       x="-0.071268358"
       width="1.1425367"
       y="-0.065753596"
       height="1.1315072">
      <feGaussianBlur
         inkscape:collect="always"
         stdDeviation="0.29858812"
         id="feGaussianBlur4701" />
    </filter>
  </defs>
  <sodipodi:namedview
     id="base"
     pagecolor="#ffffff"
     bordercolor="#666666"
     borderopacity="1.0"
     inkscape:pageopacity="0.0"
     inkscape:pageshadow="2"
     inkscape:zoom="3.5602898"
     inkscape:cx="37.405435"
     inkscape:cy="30.135787"
     inkscape:document-units="px"
     inkscape:current-layer="svg2"
     showgrid="false"
     showguides="false"
     units="px"
     inkscape:window-width="1201"
     inkscape:window-height="733"
     inkscape:window-x="426"
     inkscape:window-y="143"
     inkscape:window-maximized="0">
    <inkscape:grid
       type="xygrid"
       id="grid3344"
       empspacing="4" />
  </sodipodi:namedview>
  <metadata
     id="metadata7">
    <rdf:RDF>
      <cc:Work
         rdf:about="">
        <dc:format>image/svg+xml</dc:format>
        <dc:type
           rdf:resource="http://purl.org/dc/dcmitype/StillImage" />
        <dc:title />
      </cc:Work>
    </rdf:RDF>
  </metadata>
  <g
     inkscape:label="Background"
     inkscape:groupmode="layer"
     id="layer1"
     transform="translate(0,-1004.3622)"
     style="display:inline;opacity:0.98999999">
    <rect
       rx="3"
       y="1010.3622"
       x="5"
       height="38"
       width="38"
       id="rect4240"
       style="opacity:0.2;fill:#000000;fill-opacity:1;stroke:none;filter:url(#filter4338)" />
    <rect
       style="opacity:1;fill:#9c27b0;fill-opacity:1;stroke:none"
       id="rect4171"
       width="38"
       height="38"
       x="5"
       y="1009.3622"
       rx="3" />
    <path
       style="opacity:0.2;fill:#ffffff;fill-opacity:1;stroke:none"
       d="M 8,5 C 6.338,5 5,6.338 5,8 L 5,9 C 5,7.338 6.338,6 8,6 l 32,0 c 1.662,0 3,1.338 3,3 L 43,8 C 43,6.338 41.662,5 40,5 L 8,5 Z"
       transform="translate(0,1004.3622)"
       id="rect4230"
       inkscape:connector-curvature="0" />
    <path
       style="opacity:0.2;fill:#512d47;fill-opacity:1;stroke:none"
       d="m 5,39 0,1 c 0,1.662 1.338,3 3,3 l 32,0 c 1.662,0 3,-1.338 3,-3 l 0,-1 c 0,1.662 -1.338,3 -3,3 L 8,42 C 6.338,42 5,40.662 5,39 Z"
       transform="translate(0,1004.3622)"
       id="rect4235"
       inkscape:connector-curvature="0" />
    <path
       style="opacity:0.2;fill:#1a237e;fill-opacity:0.99215686;stroke:none"
       d="M 24,7 A 19,19 0 0 0 5,26 19,19 0 0 0 15.566406,43 l 16.904297,0 A 19,19 0 0 0 43,26 19,19 0 0 0 24,7 Z"
       transform="translate(0,1004.3622)"
       id="rect4276"
       inkscape:connector-curvature="0" />
  </g>
  <g
     inkscape:groupmode="layer"
     id="layer2"
     inkscape:label="Logo Old"
     style="display:none">
    <path
       sodipodi:nodetypes="csccccccscccccc"
       inkscape:connector-curvature="0"
       id="path4369"
       d="m 24,24.750557 c -3.004869,0 -5.449219,2.44435 -5.449219,5.449219 0,3.004869 2.44435,5.449219 5.449219,5.449219 1.820589,-0.002 3.522056,-0.912349 4.53125,-2.427735 0.137346,-0.205574 0.07948,-0.490908 -0.126953,-0.626953 L 27.570312,32.03962 c -0.205574,-0.137349 -0.490908,-0.07948 -0.626953,0.126953 -0.656804,0.986055 -1.75863,1.580862 -2.943359,1.583984 -1.966286,0 -3.550781,-1.584495 -3.550781,-3.550781 0,-1.966286 1.584495,-3.550781 3.550781,-3.550781 1.185346,0.0026 2.288172,0.597428 2.945312,1.583984 0.136045,0.206438 0.42138,0.264295 0.626954,0.126953 l 0.828125,-0.550781 c 0.206438,-0.136045 0.264295,-0.42138 0.126953,-0.626953 C 27.51995,25.666427 25.819872,24.754917 24,24.750557 Z"
       style="color:#000000;font-style:normal;font-variant:normal;font-weight:normal;font-stretch:normal;font-size:medium;line-height:normal;font-family:sans-serif;text-indent:0;text-align:start;text-decoration:none;text-decoration-line:none;text-decoration-style:solid;text-decoration-color:#000000;letter-spacing:normal;word-spacing:normal;text-transform:none;direction:ltr;block-progression:tb;writing-mode:lr-tb;baseline-shift:baseline;text-anchor:start;white-space:normal;clip-rule:nonzero;display:inline;overflow:visible;visibility:visible;opacity:0.175;isolation:auto;mix-blend-mode:normal;color-interpolation:sRGB;color-interpolation-filters:linearRGB;solid-color:#000000;solid-opacity:1;fill:#000000;fill-opacity:1;fill-rule:evenodd;stroke:none;stroke-width:0.40000001;stroke-linecap:butt;stroke-linejoin:round;stroke-miterlimit:4;stroke-dasharray:none;stroke-dashoffset:0;stroke-opacity:1;filter:url(#filter4699);color-rendering:auto;image-rendering:auto;shape-rendering:auto;text-rendering:auto;enable-background:accumulate" />
    <path
       style="color:#000000;font-style:normal;font-variant:normal;font-weight:normal;font-stretch:normal;font-size:medium;line-height:normal;font-family:sans-serif;text-indent:0;text-align:start;text-decoration:none;text-decoration-line:none;text-decoration-style:solid;text-decoration-color:#000000;letter-spacing:normal;word-spacing:normal;text-transform:none;direction:ltr;block-progression:tb;writing-mode:lr-tb;baseline-shift:baseline;text-anchor:start;white-space:normal;clip-rule:nonzero;display:inline;overflow:visible;visibility:visible;opacity:1;isolation:auto;mix-blend-mode:normal;color-interpolation:sRGB;color-interpolation-filters:linearRGB;solid-color:#000000;solid-opacity:1;fill:#ffffff;fill-opacity:1;fill-rule:evenodd;stroke:none;stroke-width:0.40000001;stroke-linecap:butt;stroke-linejoin:round;stroke-miterlimit:4;stroke-dasharray:none;stroke-dashoffset:0;stroke-opacity:1;color-rendering:auto;image-rendering:auto;shape-rendering:auto;text-rendering:auto;enable-background:accumulate"
       d="m 24,24.550781 c -3.004869,0 -5.449219,2.44435 -5.449219,5.449219 0,3.004869 2.44435,5.449219 5.449219,5.449219 1.820589,-0.002 3.522056,-0.912349 4.53125,-2.427735 0.137346,-0.205574 0.07948,-0.490908 -0.126953,-0.626953 l -0.833985,-0.554687 c -0.205574,-0.137349 -0.490908,-0.07948 -0.626953,0.126953 -0.656804,0.986055 -1.75863,1.580862 -2.943359,1.583984 -1.966286,0 -3.550781,-1.584495 -3.550781,-3.550781 0,-1.966286 1.584495,-3.550781 3.550781,-3.550781 1.185346,0.0026 2.288172,0.597428 2.945312,1.583984 0.136045,0.206438 0.42138,0.264295 0.626954,0.126953 l 0.828125,-0.550781 c 0.206438,-0.136045 0.264295,-0.42138 0.126953,-0.626953 C 27.51995,25.466651 25.819872,24.555141 24,24.550781 Z"
       id="path4176"
       inkscape:connector-curvature="0"
       sodipodi:nodetypes="csccccccscccccc" />
    <text
       xml:space="preserve"
       style="font-style:normal;font-weight:normal;font-size:40px;line-height:125%;font-family:Sans;letter-spacing:0px;word-spacing:0px;fill:#000000;fill-opacity:1;stroke:none;stroke-width:1px;stroke-linecap:butt;stroke-linejoin:miter;stroke-opacity:1"
       x="8"
       y="20"
       id="text4200"
       sodipodi:linespacing="125%"><tspan
         sodipodi:role="line"
         id="tspan4202"
         x="8"
         y="20" /></text>
  </g>
  <g
     inkscape:groupmode="layer"
     id="layer3"
     inkscape:label="Logo"
     style="display:none" />
  <path
     style="opacity:1;fill:#ffffff;fill-opacity:1;stroke:none;stroke-width:0.40000001;stroke-linejoin:round;stroke-miterlimit:4;stroke-dasharray:none;stroke-opacity:1"
     d="m 24,17 a 9,9 0 0 0 -9,9 l 0,17 3,0 0,-10.306641 A 9,9 0 0 0 24,35 9,9 0 0 0 31.193359,31.394531 L 28.794922,29.595703 A 6,6 0 0 1 24,32 a 6,6 0 0 1 -6,-6 6,6 0 0 1 6,-6 6,6 0 0 1 4.794922,2.404297 l 2.396484,-1.796875 A 9,9 0 0 0 24,17 Z"
     id="path4236"
     inkscape:connector-curvature="0" />
  <path
     style="opacity:1;fill:#b052c0;fill-opacity:1;stroke:none;stroke-width:1;stroke-linejoin:round;stroke-miterlimit:4;stroke-dasharray:none;stroke-opacity:1"
     d="m 31.191406,20.607422 z m 0,0 -2.396484,1.796875 C 29.574786,23.441063 29.997606,24.70267 30,26 c -0.0024,1.29733 -0.425214,2.558937 -1.205078,3.595703 l 2.398437,1.798828 C 32.363007,29.838993 32.996902,27.946218 33,26 32.9959,24.054228 32.361351,22.162181 31.191406,20.607422 Z m -0.002,10.792969 z"
     id="path4280"
     inkscape:connector-curvature="0"
     sodipodi:nodetypes="ccccccccccc" />
</svg>
