<?xml version="1.0" encoding="UTF-8" standalone="no"?>
<!-- Created with Inkscape (http://www.inkscape.org/) -->

<svg
   xmlns:dc="http://purl.org/dc/elements/1.1/"
   xmlns:cc="http://creativecommons.org/ns#"
   xmlns:rdf="http://www.w3.org/1999/02/22-rdf-syntax-ns#"
   xmlns:svg="http://www.w3.org/2000/svg"
   xmlns="http://www.w3.org/2000/svg"
   xmlns:sodipodi="http://sodipodi.sourceforge.net/DTD/sodipodi-0.dtd"
   xmlns:inkscape="http://www.inkscape.org/namespaces/inkscape"
   width="640"
   height="400"
   viewBox="0 0 640 400"
   id="svg2"
   version="1.1"
   inkscape:version="0.91 r13725"
   sodipodi:docname="palm-compute-diagram.svg"
   inkscape:export-filename="/home/emanuel/Prog/c/lua-compute/design/docs/lua-compute-diagram.png"
   inkscape:export-xdpi="90"
   inkscape:export-ydpi="90">
  <defs
     id="defs4" />
  <sodipodi:namedview
     id="base"
     pagecolor="#ffffff"
     bordercolor="#666666"
     borderopacity="1.0"
     inkscape:pageopacity="0.0"
     inkscape:pageshadow="2"
     inkscape:zoom="1.25"
     inkscape:cx="345.57601"
     inkscape:cy="190.75"
     inkscape:document-units="px"
     inkscape:current-layer="layer1"
     showgrid="false"
     units="px"
     inkscape:window-width="1855"
     inkscape:window-height="1056"
     inkscape:window-x="65"
     inkscape:window-y="24"
     inkscape:window-maximized="1"
     showguides="true"
     inkscape:guide-bbox="true">
    <inkscape:grid
       type="xygrid"
       id="grid4136"
       spacingx="0.5"
       spacingy="0.5"
       empspacing="4" />
  </sodipodi:namedview>
  <metadata
     id="metadata7">
    <rdf:RDF>
      <cc:Work
         rdf:about="">
        <dc:format>image/svg+xml</dc:format>
        <dc:type
           rdf:resource="http://purl.org/dc/dcmitype/StillImage" />
        <dc:title />
      </cc:Work>
    </rdf:RDF>
  </metadata>
  <g
     inkscape:label="Layer 1"
     inkscape:groupmode="layer"
     id="layer1"
     transform="translate(0,-652.36216)">
    <rect
       style="opacity:1;fill:none;fill-opacity:1;stroke:#d8dbe0;stroke-width:2;stroke-linejoin:round;stroke-miterlimit:4;stroke-dasharray:none;stroke-dashoffset:0;stroke-opacity:1"
       id="rect5161"
       width="348"
       height="295.99997"
       x="12"
       y="744.36218"
       ry="23.999977" />
    <path
       style="opacity:1;fill:#1a237e;fill-opacity:1;stroke:none;stroke-width:2;stroke-linejoin:round;stroke-miterlimit:4;stroke-dasharray:none;stroke-dashoffset:0;stroke-opacity:1"
       d="m 564,188 -8,12 6,0 0,128 -222,0 0,4 226,0 0,-4 0,-128 6,0 -8,-12 z"
       transform="translate(0,572.36216)"
       id="rect5165"
       inkscape:connector-curvature="0" />
    <rect
       style="opacity:1;fill:#d8dbe0;fill-opacity:1;stroke:none;stroke-width:2;stroke-linejoin:round;stroke-miterlimit:4;stroke-dasharray:none;stroke-dashoffset:0;stroke-opacity:1"
       id="rect5073"
       width="224"
       height="209.99998"
       x="64"
       y="798.36218"
       ry="11.999977" />
    <rect
       style="opacity:1;fill:#ffffff;fill-opacity:1;stroke:#798699;stroke-width:2;stroke-linejoin:round;stroke-miterlimit:4;stroke-dasharray:none;stroke-dashoffset:0;stroke-opacity:1"
       id="rect4967"
       width="124"
       height="197.99998"
       x="158"
       y="804.36218"
       ry="7.9999776" />
    <path
       style="opacity:1;fill:#1a237e;fill-opacity:1;stroke:none;stroke-width:2;stroke-linejoin:round;stroke-miterlimit:4;stroke-dasharray:none;stroke-dashoffset:0;stroke-opacity:1"
       d="m 232,888.36216 a 14,14 0 0 0 -14,14 14,14 0 0 0 14,14 14,14 0 0 0 14,-14 14,14 0 0 0 -14,-14 z m 0,4 a 10,10 0 0 1 10,10 10,10 0 0 1 -10,10 10,10 0 0 1 -10,-10 10,10 0 0 1 10,-10 z"
       id="path5108"
       inkscape:connector-curvature="0" />
    <rect
       ry="8.0138397"
       y="804.36218"
       x="70"
       height="198"
       width="52"
       id="rect5035"
       style="opacity:1;fill:#ffffff;fill-opacity:1;stroke:#798699;stroke-width:2;stroke-linejoin:round;stroke-miterlimit:4;stroke-dasharray:none;stroke-dashoffset:0;stroke-opacity:1" />
    <path
       style="opacity:1;fill:#1a237e;fill-opacity:1;stroke:none;stroke-width:2;stroke-linejoin:miter;stroke-miterlimit:4;stroke-dasharray:none;stroke-opacity:1"
       d="m 154.75,894.36216 0,6 -16.75,0 0,74 -24.12109,0 a 18,18 0 0 0 -17.87891,-16 18,18 0 0 0 -18,18 18,18 0 0 0 11.910156,16.91992 l 0,-4.33203 A 14,14 0 0 1 82,976.36216 a 14,14 0 0 1 14,-14 14,14 0 0 1 14,14 14,14 0 0 1 -14,14 14,14 0 0 1 -3.681641,-0.50977 l 0,4.10743 A 18,18 0 0 0 96,994.36216 a 18,18 0 0 0 17.86719,-16 l 28.13281,0 0,-74 12.75,0 0,6 12,-8 -12,-8 z"
       id="path5653"
       inkscape:connector-curvature="0" />
    <path
       style="display:inline;opacity:1;fill:#1a237e;fill-opacity:1;stroke:none"
       d="m 491.5,728.36216 -350,0 0,6 -12,-8 12,-8 0,6 350,0 z"
       id="path4805"
       inkscape:connector-curvature="0"
       sodipodi:nodetypes="cccccccc" />
    <g
       id="g4892"
       transform="matrix(0.75,0,0,0.75,42,211.09054)">
      <path
         id="path4890"
         d="M 174.40039,804.36216 A 6.4,6.4 0 0 0 168,810.76255 l 0,17.59961 0,28 0,4 0,1.59961 a 6.4,6.4 0 0 0 6.40039,6.40039 l 51.19922,0 A 6.4,6.4 0 0 0 232,861.96177 l 0,-51.19922 a 6.4,6.4 0 0 0 -6.40039,-6.40039 l -51.19922,0 z"
         style="display:inline;opacity:1;fill:#1a237e;fill-opacity:1;stroke:none"
         inkscape:connector-curvature="0" />
      <path
         inkscape:connector-curvature="0"
         id="path4770"
         d="M 196.6375,809.48716 A 30.238187,30.238187 0 0 0 168,830.10278 l 0,19.20626 a 30.238187,30.238187 0 0 0 19.01875,19.05312 l 19.20314,0 a 30.238187,30.238187 0 0 0 20.65312,-28.63751 30.238187,30.238187 0 0 0 -30.23751,-30.23749 z"
         style="display:inline;opacity:1;fill:#141b62;fill-opacity:1;stroke:none" />
      <path
         inkscape:connector-curvature="0"
         id="rect4171"
         d="m 195.10938,808.77153 -1.55,0.0813 -0.0406,0 -0.0406,0 -3.00312,0.45938 -0.0406,0 -0.0374,0.016 -0.20312,0.0499 0.39686,1.54688 0.16251,-0.0374 2.91562,-0.44375 1.51875,-0.0781 -0.0781,-1.59376 z m 4.95313,0.10624 -0.24376,1.58125 2.8,0.42811 1.82813,0.46875 0.4,-1.55 -1.8625,-0.47811 -0.0406,-0.016 -0.0406,0 -2.84062,-0.43438 z m -14.53438,1.9125 -0.88437,0.32187 -0.0344,0.016 -0.0374,0.0187 -2.64376,1.27187 -0.0344,0.0219 -0.0312,0.0187 -0.79374,0.48125 0.83124,1.36875 0.72501,-0.44374 0.0187,-0.016 2.58125,-1.24688 0.85312,-0.3125 -0.55,-1.5 z m 23.97501,0.6875 -0.69376,1.44063 1.91251,0.92499 2.22187,1.34688 0.83125,-1.36563 -2.25626,-1.37188 -0.0344,-0.0187 -0.0344,-0.0219 -1.94686,-0.93436 z m -32.44688,4.21562 -0.0813,0.0594 -0.0282,0.0219 -0.0282,0.025 -2.15,1.95312 -0.0282,0.0282 -0.025,0.0282 -1.20938,1.33126 1.18438,1.07811 1.15624,-1.27811 0.0128,-0.016 2.10312,-1.91251 0.0499,-0.0406 -0.95624,-1.27811 z m 40.60312,1.2 -1.07812,1.18438 0.925,0.84063 1.875,2.05937 0.006,0 0.3625,0.48125 1.28125,-0.95626 -0.36875,-0.49062 -0.0219,-0.0312 -0.025,-0.0282 -1.95312,-2.14688 -0.025,-0.0282 -0.0282,-0.025 -0.95,-0.85938 z m -47.13749,6.18438 -1.10314,1.81562 -0.0219,0.0374 -0.016,0.0344 -1.16249,2.40625 1.44374,0.69375 1.14376,-2.37187 1.08125,-1.78125 -1.36563,-0.83439 z m 53.22811,1.46874 -1.36874,0.82813 0.19063,0.31563 1.23749,2.56875 0.49062,1.33749 1.50314,-0.55 -0.5,-1.36562 -0.0128,-0.0374 -0.0187,-0.0374 -1.27191,-2.64073 -0.0187,-0.0344 -0.0187,-0.0374 -0.21249,-0.34687 z m -55.75,7.86877 0,0.79376 0.19062,-0.74376 -0.19062,-0.05 z m 59.15,1.39376 -1.58125,0.24062 0.40314,2.65312 0.10624,2.03125 1.59686,-0.0781 -0.10304,-2.06562 -0.003,-0.0406 -0.006,-0.0374 -0.41249,-2.70313 z m -1.27187,9.55624 -0.35,2.29062 -0.59687,2.32501 1.55,0.4 0.60624,-2.3625 0.0128,-0.0406 0.003,-0.0374 0.35626,-2.33438 -1.58125,-0.24063 z m -57.15312,5.52188 -0.72501,0.26562 0,2.40626 0.0781,0.21249 0.0128,0.0344 0.016,0.0374 1.00626,2.08751 1.44062,-0.69688 -0.99688,-2.06876 -0.006,-0.0187 -0.82499,-2.25937 z m 54.54688,3.41874 -0.70626,1.46251 -0.01,0.0187 -1.45,2.38437 -0.12496,0.16875 1.28125,0.95938 0.14064,-0.18751 0.025,-0.0344 0.0187,-0.0312 1.51563,-2.49374 0.0187,-0.0344 0.0187,-0.0312 0.7125,-1.4875 -1.44063,-0.69375 z m -50.25626,4.85938 -1.28125,0.95937 0.98125,1.31563 0.0219,0.0282 0.0282,0.0282 1.95,2.15 0.025,0.0282 0.0282,0.025 0.19063,0.17188 1.07812,-1.18439 -0.16249,-0.14688 -1.90938,-2.10312 -0.016,-0.0187 -0.93437,-1.25313 z M 218,859.9934 l -0.5125,0.55938 -0.01,0.016 -2.06249,1.86875 -0.87187,0.65626 0.95624,1.28125 0.90313,-0.67501 0.0312,-0.0219 0.0282,-0.0312 2.14687,-1.95 0.0282,-0.025 0.025,-0.025 0.51875,-0.57499 -1.18119,-1.0786 z m -38.33749,3.71876 -0.95937,1.28124 0.6,0.45 0.0312,0.0219 0.0344,0.0219 2.49374,1.5125 0.0312,0.025 0.0344,0.016 1.02187,0.49064 0.69376,-1.44064 -1,-0.48125 -0.0187,-0.016 -2.40313,-1.46875 -0.55938,-0.4125 z m 31,1.93436 -2.53438,1.22189 -0.016,0 -1.77499,0.64687 0.30942,0.84688 2.02813,0 0.0594,-0.0219 0.0374,-0.016 0.0344,-0.0187 2.55312,-1.22813 -0.69687,-1.43125 z m -22.72813,2.19064 -0.1344,0.525 2.17188,0 -2.03751,-0.525 z"
         style="display:inline;opacity:1;fill:#c3c6f2;fill-opacity:1;stroke:none" />
      <rect
         y="810.76208"
         x="179.2"
         height="43.200001"
         width="4.8000002"
         id="rect4342"
         style="opacity:1;fill:#ffffff;fill-opacity:1;stroke:none;stroke-width:1;stroke-linejoin:round;stroke-miterlimit:4;stroke-dasharray:none;stroke-opacity:1" />
      <path
         inkscape:connector-curvature="0"
         id="path4236"
         d="m 201.6,825.16216 c -6.97395,0 -12.78634,4.95739 -14.1125,11.54062 -0.0931,0.46184 -0.1648,0.93269 -0.21249,1.40938 -0.0477,0.47712 -0.075,0.96032 -0.075,1.45 0.006,4.09051 1.7511,7.9855 4.8,10.71249 l 0,-0.003 c 2.63659,2.37 6.0548,3.6841 9.6,3.69063 4.5303,-0.005 8.79395,-2.14244 11.50937,-5.76876 l -3.8375,-2.87804 c -1.80984,2.41764 -4.65186,3.8427 -7.67187,3.84688 -5.30194,0 -9.6,-4.29807 -9.6,-9.6 0,-5.30194 4.29806,-9.6 9.6,-9.6 3.02001,0.005 5.86203,1.42923 7.67187,3.84688 l 3.83438,-2.87501 c -2.71408,-3.62661 -6.97646,-5.76474 -11.50622,-5.77187 z"
         style="opacity:1;fill:#ffffff;fill-opacity:1;stroke:none;stroke-width:0.40000001;stroke-linejoin:round;stroke-miterlimit:4;stroke-dasharray:none;stroke-opacity:1" />
    </g>
    <path
       style="opacity:1;fill:#8f237e;fill-opacity:1;stroke:none;stroke-width:2;stroke-linejoin:miter;stroke-miterlimit:4;stroke-dasharray:none;stroke-opacity:1"
       d="m 506,710.36216 a 16,16 0 0 0 -16,16 16,16 0 0 0 9.91276,14.78906 l 0,-19.37109 c 0,-3.95834 1.84896,-5.9375 5.54687,-5.9375 3.76736,0 5.65105,1.671 5.65105,5.01302 0,2.37847 -0.74653,4.00173 -2.23959,4.86979 2.43056,0.78125 3.64584,2.33073 3.64584,4.64843 0,4.11459 -2.09202,6.17188 -6.27604,6.17188 -1.84028,0 -3.1467,-0.39062 -3.91928,-1.17188 l 0,6.44532 -0.3776,0 a 16,16 0 0 0 4.05599,0.54297 16,16 0 0 0 16,-16 16,16 0 0 0 -16,-16 z m -0.27995,7.43359 c -2.26562,0 -3.39844,1.35417 -3.39844,4.0625 l 0,10.39062 c 0.96355,1.50174 2.30036,2.25261 4.01042,2.25261 2.5,0 3.75,-1.36285 3.75,-4.08854 0,-2.44792 -2.01389,-3.57639 -6.04166,-3.38542 l 0,-2.21354 c 3.15104,0 4.72656,-1.38889 4.72656,-4.16667 0,-1.90104 -1.01562,-2.85156 -3.04688,-2.85156 z"
       id="circle5522"
       inkscape:connector-curvature="0" />
    <g
       style="font-style:normal;font-weight:normal;font-size:40px;line-height:125%;font-family:Sans;letter-spacing:0px;word-spacing:0px;fill:#ffffff;fill-opacity:1;stroke:none;stroke-width:1px;stroke-linecap:butt;stroke-linejoin:miter;stroke-opacity:1"
       id="text4813" />
    <path
       style="opacity:1;fill:#c86e2a;fill-opacity:1;stroke:none;stroke-width:2;stroke-linejoin:miter;stroke-miterlimit:4;stroke-dasharray:none;stroke-opacity:1"
       d="m 326,886.36216 a 16,16 0 0 0 -16,16 16,16 0 0 0 8.28255,14.01302 l 0,-18.51693 c 0,-3.95833 1.84896,-5.9375 5.54688,-5.9375 3.76736,0 5.65104,1.67101 5.65104,5.01302 0,2.37848 -0.74653,4.00174 -2.23958,4.8698 2.43055,0.78124 3.64583,2.33073 3.64583,4.64844 0,4.11458 -2.09201,6.17187 -6.27604,6.17187 -1.84028,0 -3.14671,-0.39063 -3.91927,-1.17187 l 0,5.98307 a 16,16 0 0 0 5.30859,0.92708 16,16 0 0 0 16,-16 16,16 0 0 0 -16,-16 z m -1.91015,7.51172 c -2.26563,0 -3.39844,1.35417 -3.39844,4.0625 l 0,10.39063 c 0.96354,1.50173 2.30034,2.2526 4.01041,2.2526 2.5,0 3.75,-1.36285 3.75,-4.08854 0,-2.44792 -2.01389,-3.57639 -6.04167,-3.38542 l 0,-2.21354 c 3.15104,0 4.72657,-1.38889 4.72657,-4.16667 0,-1.90104 -1.01563,-2.85156 -3.04687,-2.85156 z m 11.3164,11.20573 c 0.90377,0 1.63788,0.35782 2.20052,1.07552 0.56708,0.7177 0.85026,1.66244 0.85026,2.83203 0,1.16959 -0.28318,2.11303 -0.85026,2.83073 -0.56264,0.7177 -1.29675,1.07552 -2.20052,1.07552 -0.54493,0 -1.01456,-0.10506 -1.40886,-0.31771 -0.38986,-0.21707 -0.7131,-0.54785 -0.97004,-0.99088 l 0,3.94791 -1.22917,0 0,-10.27474 1.22917,0 0,1.13021 c 0.25694,-0.44303 0.58018,-0.77042 0.97004,-0.98307 0.3943,-0.21708 0.86394,-0.32552 1.40886,-0.32552 z m -0.29818,1.02344 c -0.64682,0 -1.1565,0.25692 -1.52864,0.77083 -0.36772,0.50947 -0.55208,1.21394 -0.55208,2.11328 0,0.89934 0.18436,1.60589 0.55208,2.11979 0.37214,0.50948 0.88182,0.76432 1.52864,0.76432 0.64682,0 1.15312,-0.25484 1.52084,-0.76432 0.37214,-0.5139 0.55859,-1.22045 0.55859,-2.11979 0,-0.89934 -0.18645,-1.60381 -0.55859,-2.11328 -0.36772,-0.51391 -0.87402,-0.77083 -1.52084,-0.77083 z"
       id="path5534"
       inkscape:connector-curvature="0" />
    <text
       xml:space="preserve"
       style="font-style:normal;font-weight:normal;font-size:40px;line-height:125%;font-family:Sans;letter-spacing:0px;word-spacing:0px;fill:#000000;fill-opacity:1;stroke:none;stroke-width:1px;stroke-linecap:butt;stroke-linejoin:miter;stroke-opacity:1"
       x="518.34253"
       y="714.36218"
       id="text5681"
       sodipodi:linespacing="125%"><tspan
         sodipodi:role="line"
         id="tspan5683"
         x="518.34253"
         y="714.36218"
         style="font-style:normal;font-variant:normal;font-weight:normal;font-stretch:normal;font-size:12.5px;font-family:FreeSans;-inkscape-font-specification:FreeSans">1</tspan></text>
    <text
       sodipodi:linespacing="125%"
       id="text5685"
       y="746.36218"
       x="518.34253"
       style="font-style:normal;font-weight:normal;font-size:40px;line-height:125%;font-family:Sans;letter-spacing:0px;word-spacing:0px;fill:#8f237e;fill-opacity:1;stroke:none;stroke-width:1px;stroke-linecap:butt;stroke-linejoin:miter;stroke-opacity:1"
       xml:space="preserve"><tspan
         style="font-style:normal;font-variant:normal;font-weight:normal;font-stretch:normal;font-size:12.5px;font-family:FreeSans;-inkscape-font-specification:FreeSans;fill:#8f237e;fill-opacity:1"
         y="746.36218"
         x="518.34253"
         id="tspan5687"
         sodipodi:role="line">1</tspan></text>
    <g
       id="g5061"
       transform="translate(-54,-22)">
      <g
         transform="matrix(1.6,0,0,1.6,-348.85006,-748.59686)"
         id="g4876">
        <path
           style="display:inline;opacity:1;fill:#9c27b0;fill-opacity:1;stroke:none"
           d="m 295.78129,915.59939 a 4,4 0 0 0 -4,4 l 0,32 a 4,4 0 0 0 4,4 l 32,0 a 4,4 0 0 0 4,-4 l 0,-32 a 4,4 0 0 0 -4,-4 l -32,0 z"
           id="rect4171-9"
           inkscape:connector-curvature="0" />
        <path
           style="display:inline;opacity:0.2;fill:#1a237e;fill-opacity:0.99215686;stroke:none"
           d="m 309.78129,918.59939 a 19,19 0 0 0 -18,12.99219 l 0,12.01562 a 19,19 0 0 0 9.56641,10.99219 l 16.90429,0 a 19,19 0 0 0 10.5293,-17 19,19 0 0 0 -19,-19 z"
           id="rect4276"
           inkscape:connector-curvature="0" />
        <path
           inkscape:connector-curvature="0"
           style="opacity:1;fill:#ffffff;fill-opacity:1;stroke:none;stroke-width:1;stroke-linejoin:round;stroke-miterlimit:4;stroke-dasharray:none;stroke-opacity:1"
           d="m 300.78125,176.23633 0,9 0,18 3,0 0,-11.30469 0,-0.002 c 1.64787,1.48125 3.78425,2.30256 6,2.30664 2.83144,-0.003 5.49622,-1.33902 7.19336,-3.60547 l -2.39844,-1.79883 c -1.13115,1.51103 -2.90741,2.40169 -4.79492,2.4043 -3.31371,0 -6,-2.68629 -6,-6 0,-3.31371 2.68629,-6 6,-6 1.88751,0.003 3.66377,0.89326 4.79492,2.40429 l 2.39649,-1.79687 c -1.69633,-2.26663 -4.36031,-3.60297 -7.19141,-3.60742 -2.30811,0 -4.40758,0.87624 -6,2.30469 l 0,-2.30469 -3,0 z"
           transform="translate(0,752.36216)"
           id="rect4342-7" />
      </g>
      <text
         sodipodi:linespacing="125%"
         id="text4881"
         y="729.86218"
         x="148"
         style="font-style:normal;font-weight:normal;font-size:40px;line-height:125%;font-family:Sans;letter-spacing:0px;word-spacing:0px;fill:#ffffff;fill-opacity:1;stroke:none;stroke-width:1px;stroke-linecap:butt;stroke-linejoin:miter;stroke-opacity:1"
         xml:space="preserve"><tspan
           style="font-style:normal;font-variant:normal;font-weight:normal;font-stretch:normal;font-size:12.5px;font-family:FreeSans;-inkscape-font-specification:FreeSans;fill:#ffffff;fill-opacity:1"
           y="729.86218"
           x="148"
           id="tspan4883"
           sodipodi:role="line">client</tspan></text>
    </g>
    <g
       transform="matrix(0.75,0,0,0.75,42,275.09054)"
       id="g4899">
      <path
         inkscape:connector-curvature="0"
         style="display:inline;opacity:1;fill:#1a237e;fill-opacity:1;stroke:none"
         d="M 174.40039,804.36216 A 6.4,6.4 0 0 0 168,810.76255 l 0,17.59961 0,28 0,4 0,1.59961 a 6.4,6.4 0 0 0 6.40039,6.40039 l 51.19922,0 A 6.4,6.4 0 0 0 232,861.96177 l 0,-51.19922 a 6.4,6.4 0 0 0 -6.40039,-6.40039 l -51.19922,0 z"
         id="path4901" />
      <path
         style="display:inline;opacity:1;fill:#141b62;fill-opacity:1;stroke:none"
         d="M 196.6375,809.48716 A 30.238187,30.238187 0 0 0 168,830.10278 l 0,19.20626 a 30.238187,30.238187 0 0 0 19.01875,19.05312 l 19.20314,0 a 30.238187,30.238187 0 0 0 20.65312,-28.63751 30.238187,30.238187 0 0 0 -30.23751,-30.23749 z"
         id="path4903"
         inkscape:connector-curvature="0" />
      <path
         style="display:inline;opacity:1;fill:#c3c6f2;fill-opacity:1;stroke:none"
         d="m 195.10938,808.77153 -1.55,0.0813 -0.0406,0 -0.0406,0 -3.00312,0.45938 -0.0406,0 -0.0374,0.016 -0.20312,0.0499 0.39686,1.54688 0.16251,-0.0374 2.91562,-0.44375 1.51875,-0.0781 -0.0781,-1.59376 z m 4.95313,0.10624 -0.24376,1.58125 2.8,0.42811 1.82813,0.46875 0.4,-1.55 -1.8625,-0.47811 -0.0406,-0.016 -0.0406,0 -2.84062,-0.43438 z m -14.53438,1.9125 -0.88437,0.32187 -0.0344,0.016 -0.0374,0.0187 -2.64376,1.27187 -0.0344,0.0219 -0.0312,0.0187 -0.79374,0.48125 0.83124,1.36875 0.72501,-0.44374 0.0187,-0.016 2.58125,-1.24688 0.85312,-0.3125 -0.55,-1.5 z m 23.97501,0.6875 -0.69376,1.44063 1.91251,0.92499 2.22187,1.34688 0.83125,-1.36563 -2.25626,-1.37188 -0.0344,-0.0187 -0.0344,-0.0219 -1.94686,-0.93436 z m -32.44688,4.21562 -0.0813,0.0594 -0.0282,0.0219 -0.0282,0.025 -2.15,1.95312 -0.0282,0.0282 -0.025,0.0282 -1.20938,1.33126 1.18438,1.07811 1.15624,-1.27811 0.0128,-0.016 2.10312,-1.91251 0.0499,-0.0406 -0.95624,-1.27811 z m 40.60312,1.2 -1.07812,1.18438 0.925,0.84063 1.875,2.05937 0.006,0 0.3625,0.48125 1.28125,-0.95626 -0.36875,-0.49062 -0.0219,-0.0312 -0.025,-0.0282 -1.95312,-2.14688 -0.025,-0.0282 -0.0282,-0.025 -0.95,-0.85938 z m -47.13749,6.18438 -1.10314,1.81562 -0.0219,0.0374 -0.016,0.0344 -1.16249,2.40625 1.44374,0.69375 1.14376,-2.37187 1.08125,-1.78125 -1.36563,-0.83439 z m 53.22811,1.46874 -1.36874,0.82813 0.19063,0.31563 1.23749,2.56875 0.49062,1.33749 1.50314,-0.55 -0.5,-1.36562 -0.0128,-0.0374 -0.0187,-0.0374 -1.27191,-2.64073 -0.0187,-0.0344 -0.0187,-0.0374 -0.21249,-0.34687 z m -55.75,7.86877 0,0.79376 0.19062,-0.74376 -0.19062,-0.05 z m 59.15,1.39376 -1.58125,0.24062 0.40314,2.65312 0.10624,2.03125 1.59686,-0.0781 -0.10304,-2.06562 -0.003,-0.0406 -0.006,-0.0374 -0.41249,-2.70313 z m -1.27187,9.55624 -0.35,2.29062 -0.59687,2.32501 1.55,0.4 0.60624,-2.3625 0.0128,-0.0406 0.003,-0.0374 0.35626,-2.33438 -1.58125,-0.24063 z m -57.15312,5.52188 -0.72501,0.26562 0,2.40626 0.0781,0.21249 0.0128,0.0344 0.016,0.0374 1.00626,2.08751 1.44062,-0.69688 -0.99688,-2.06876 -0.006,-0.0187 -0.82499,-2.25937 z m 54.54688,3.41874 -0.70626,1.46251 -0.01,0.0187 -1.45,2.38437 -0.12496,0.16875 1.28125,0.95938 0.14064,-0.18751 0.025,-0.0344 0.0187,-0.0312 1.51563,-2.49374 0.0187,-0.0344 0.0187,-0.0312 0.7125,-1.4875 -1.44063,-0.69375 z m -50.25626,4.85938 -1.28125,0.95937 0.98125,1.31563 0.0219,0.0282 0.0282,0.0282 1.95,2.15 0.025,0.0282 0.0282,0.025 0.19063,0.17188 1.07812,-1.18439 -0.16249,-0.14688 -1.90938,-2.10312 -0.016,-0.0187 -0.93437,-1.25313 z M 218,859.9934 l -0.5125,0.55938 -0.01,0.016 -2.06249,1.86875 -0.87187,0.65626 0.95624,1.28125 0.90313,-0.67501 0.0312,-0.0219 0.0282,-0.0312 2.14687,-1.95 0.0282,-0.025 0.025,-0.025 0.51875,-0.57499 -1.18119,-1.0786 z m -38.33749,3.71876 -0.95937,1.28124 0.6,0.45 0.0312,0.0219 0.0344,0.0219 2.49374,1.5125 0.0312,0.025 0.0344,0.016 1.02187,0.49064 0.69376,-1.44064 -1,-0.48125 -0.0187,-0.016 -2.40313,-1.46875 -0.55938,-0.4125 z m 31,1.93436 -2.53438,1.22189 -0.016,0 -1.77499,0.64687 0.30942,0.84688 2.02813,0 0.0594,-0.0219 0.0374,-0.016 0.0344,-0.0187 2.55312,-1.22813 -0.69687,-1.43125 z m -22.72813,2.19064 -0.1344,0.525 2.17188,0 -2.03751,-0.525 z"
         id="path4905"
         inkscape:connector-curvature="0" />
      <rect
         style="opacity:1;fill:#ffffff;fill-opacity:1;stroke:none;stroke-width:1;stroke-linejoin:round;stroke-miterlimit:4;stroke-dasharray:none;stroke-opacity:1"
         id="rect4907"
         width="4.8000002"
         height="43.200001"
         x="179.2"
         y="810.76208" />
      <path
         style="opacity:1;fill:#ffffff;fill-opacity:1;stroke:none;stroke-width:0.40000001;stroke-linejoin:round;stroke-miterlimit:4;stroke-dasharray:none;stroke-opacity:1"
         d="m 201.6,825.16216 c -6.97395,0 -12.78634,4.95739 -14.1125,11.54062 -0.0931,0.46184 -0.1648,0.93269 -0.21249,1.40938 -0.0477,0.47712 -0.075,0.96032 -0.075,1.45 0.006,4.09051 1.7511,7.9855 4.8,10.71249 l 0,-0.003 c 2.63659,2.37 6.0548,3.6841 9.6,3.69063 4.5303,-0.005 8.79395,-2.14244 11.50937,-5.76876 l -3.8375,-2.87804 c -1.80984,2.41764 -4.65186,3.8427 -7.67187,3.84688 -5.30194,0 -9.6,-4.29807 -9.6,-9.6 0,-5.30194 4.29806,-9.6 9.6,-9.6 3.02001,0.005 5.86203,1.42923 7.67187,3.84688 l 3.83438,-2.87501 c -2.71408,-3.62661 -6.97646,-5.76474 -11.50622,-5.77187 z"
         id="path4909"
         inkscape:connector-curvature="0" />
    </g>
    <g
       transform="matrix(1.6,0,0,1.6,65.14994,-770.59686)"
       id="g4915">
      <path
         style="display:inline;opacity:1;fill:#9c27b0;fill-opacity:1;stroke:none"
         d="m 295.78129,915.59939 a 4,4 0 0 0 -4,4 l 0,32 a 4,4 0 0 0 4,4 l 32,0 a 4,4 0 0 0 4,-4 l 0,-32 a 4,4 0 0 0 -4,-4 l -32,0 z"
         id="path4917"
         inkscape:connector-curvature="0" />
      <path
         style="display:inline;opacity:0.2;fill:#1a237e;fill-opacity:0.99215686;stroke:none"
         d="m 309.78129,918.59939 a 19,19 0 0 0 -18,12.99219 l 0,12.01562 a 19,19 0 0 0 9.56641,10.99219 l 16.90429,0 a 19,19 0 0 0 10.5293,-17 19,19 0 0 0 -19,-19 z"
         id="path4919"
         inkscape:connector-curvature="0" />
      <path
         inkscape:connector-curvature="0"
         style="opacity:1;fill:#ffffff;fill-opacity:1;stroke:none;stroke-width:1;stroke-linejoin:round;stroke-miterlimit:4;stroke-dasharray:none;stroke-opacity:1"
         d="m 300.78125,176.23633 0,9 0,18 3,0 0,-11.30469 0,-0.002 c 1.64787,1.48125 3.78425,2.30256 6,2.30664 2.83144,-0.003 5.49622,-1.33902 7.19336,-3.60547 l -2.39844,-1.79883 c -1.13115,1.51103 -2.90741,2.40169 -4.79492,2.4043 -3.31371,0 -6,-2.68629 -6,-6 0,-3.31371 2.68629,-6 6,-6 1.88751,0.003 3.66377,0.89326 4.79492,2.40429 l 2.39649,-1.79687 c -1.69633,-2.26663 -4.36031,-3.60297 -7.19141,-3.60742 -2.30811,0 -4.40758,0.87624 -6,2.30469 l 0,-2.30469 -3,0 z"
         transform="translate(0,752.36216)"
         id="path4921" />
    </g>
    <text
       sodipodi:linespacing="125%"
       id="text4923"
       y="707.86218"
       x="552"
       style="font-style:normal;font-weight:normal;font-size:40px;line-height:125%;font-family:Sans;letter-spacing:0px;word-spacing:0px;fill:#ffffff;fill-opacity:1;stroke:none;stroke-width:1px;stroke-linecap:butt;stroke-linejoin:miter;stroke-opacity:1"
       xml:space="preserve"><tspan
         style="font-style:normal;font-variant:normal;font-weight:normal;font-stretch:normal;font-size:12.5px;font-family:FreeSans;-inkscape-font-specification:FreeSans;fill:#ffffff;fill-opacity:1"
         y="707.86218"
         x="552"
         id="tspan4925"
         sodipodi:role="line">service</tspan></text>
    <g
       id="g4927"
       transform="matrix(0.75,0,0,0.75,42,341.09054)">
      <path
         id="path4929"
         d="M 174.40039,804.36216 A 6.4,6.4 0 0 0 168,810.76255 l 0,17.59961 0,28 0,4 0,1.59961 a 6.4,6.4 0 0 0 6.40039,6.40039 l 51.19922,0 A 6.4,6.4 0 0 0 232,861.96177 l 0,-51.19922 a 6.4,6.4 0 0 0 -6.40039,-6.40039 l -51.19922,0 z"
         style="display:inline;opacity:1;fill:#1a237e;fill-opacity:1;stroke:none"
         inkscape:connector-curvature="0" />
      <path
         inkscape:connector-curvature="0"
         id="path4931"
         d="M 196.6375,809.48716 A 30.238187,30.238187 0 0 0 168,830.10278 l 0,19.20626 a 30.238187,30.238187 0 0 0 19.01875,19.05312 l 19.20314,0 a 30.238187,30.238187 0 0 0 20.65312,-28.63751 30.238187,30.238187 0 0 0 -30.23751,-30.23749 z"
         style="display:inline;opacity:1;fill:#141b62;fill-opacity:1;stroke:none" />
      <path
         inkscape:connector-curvature="0"
         id="path4933"
         d="m 195.10938,808.77153 -1.55,0.0813 -0.0406,0 -0.0406,0 -3.00312,0.45938 -0.0406,0 -0.0374,0.016 -0.20312,0.0499 0.39686,1.54688 0.16251,-0.0374 2.91562,-0.44375 1.51875,-0.0781 -0.0781,-1.59376 z m 4.95313,0.10624 -0.24376,1.58125 2.8,0.42811 1.82813,0.46875 0.4,-1.55 -1.8625,-0.47811 -0.0406,-0.016 -0.0406,0 -2.84062,-0.43438 z m -14.53438,1.9125 -0.88437,0.32187 -0.0344,0.016 -0.0374,0.0187 -2.64376,1.27187 -0.0344,0.0219 -0.0312,0.0187 -0.79374,0.48125 0.83124,1.36875 0.72501,-0.44374 0.0187,-0.016 2.58125,-1.24688 0.85312,-0.3125 -0.55,-1.5 z m 23.97501,0.6875 -0.69376,1.44063 1.91251,0.92499 2.22187,1.34688 0.83125,-1.36563 -2.25626,-1.37188 -0.0344,-0.0187 -0.0344,-0.0219 -1.94686,-0.93436 z m -32.44688,4.21562 -0.0813,0.0594 -0.0282,0.0219 -0.0282,0.025 -2.15,1.95312 -0.0282,0.0282 -0.025,0.0282 -1.20938,1.33126 1.18438,1.07811 1.15624,-1.27811 0.0128,-0.016 2.10312,-1.91251 0.0499,-0.0406 -0.95624,-1.27811 z m 40.60312,1.2 -1.07812,1.18438 0.925,0.84063 1.875,2.05937 0.006,0 0.3625,0.48125 1.28125,-0.95626 -0.36875,-0.49062 -0.0219,-0.0312 -0.025,-0.0282 -1.95312,-2.14688 -0.025,-0.0282 -0.0282,-0.025 -0.95,-0.85938 z m -47.13749,6.18438 -1.10314,1.81562 -0.0219,0.0374 -0.016,0.0344 -1.16249,2.40625 1.44374,0.69375 1.14376,-2.37187 1.08125,-1.78125 -1.36563,-0.83439 z m 53.22811,1.46874 -1.36874,0.82813 0.19063,0.31563 1.23749,2.56875 0.49062,1.33749 1.50314,-0.55 -0.5,-1.36562 -0.0128,-0.0374 -0.0187,-0.0374 -1.27191,-2.64073 -0.0187,-0.0344 -0.0187,-0.0374 -0.21249,-0.34687 z m -55.75,7.86877 0,0.79376 0.19062,-0.74376 -0.19062,-0.05 z m 59.15,1.39376 -1.58125,0.24062 0.40314,2.65312 0.10624,2.03125 1.59686,-0.0781 -0.10304,-2.06562 -0.003,-0.0406 -0.006,-0.0374 -0.41249,-2.70313 z m -1.27187,9.55624 -0.35,2.29062 -0.59687,2.32501 1.55,0.4 0.60624,-2.3625 0.0128,-0.0406 0.003,-0.0374 0.35626,-2.33438 -1.58125,-0.24063 z m -57.15312,5.52188 -0.72501,0.26562 0,2.40626 0.0781,0.21249 0.0128,0.0344 0.016,0.0374 1.00626,2.08751 1.44062,-0.69688 -0.99688,-2.06876 -0.006,-0.0187 -0.82499,-2.25937 z m 54.54688,3.41874 -0.70626,1.46251 -0.01,0.0187 -1.45,2.38437 -0.12496,0.16875 1.28125,0.95938 0.14064,-0.18751 0.025,-0.0344 0.0187,-0.0312 1.51563,-2.49374 0.0187,-0.0344 0.0187,-0.0312 0.7125,-1.4875 -1.44063,-0.69375 z m -50.25626,4.85938 -1.28125,0.95937 0.98125,1.31563 0.0219,0.0282 0.0282,0.0282 1.95,2.15 0.025,0.0282 0.0282,0.025 0.19063,0.17188 1.07812,-1.18439 -0.16249,-0.14688 -1.90938,-2.10312 -0.016,-0.0187 -0.93437,-1.25313 z M 218,859.9934 l -0.5125,0.55938 -0.01,0.016 -2.06249,1.86875 -0.87187,0.65626 0.95624,1.28125 0.90313,-0.67501 0.0312,-0.0219 0.0282,-0.0312 2.14687,-1.95 0.0282,-0.025 0.025,-0.025 0.51875,-0.57499 -1.18119,-1.0786 z m -38.33749,3.71876 -0.95937,1.28124 0.6,0.45 0.0312,0.0219 0.0344,0.0219 2.49374,1.5125 0.0312,0.025 0.0344,0.016 1.02187,0.49064 0.69376,-1.44064 -1,-0.48125 -0.0187,-0.016 -2.40313,-1.46875 -0.55938,-0.4125 z m 31,1.93436 -2.53438,1.22189 -0.016,0 -1.77499,0.64687 0.30942,0.84688 2.02813,0 0.0594,-0.0219 0.0374,-0.016 0.0344,-0.0187 2.55312,-1.22813 -0.69687,-1.43125 z m -22.72813,2.19064 -0.1344,0.525 2.17188,0 -2.03751,-0.525 z"
         style="display:inline;opacity:1;fill:#c3c6f2;fill-opacity:1;stroke:none" />
      <rect
         y="810.76208"
         x="179.2"
         height="43.200001"
         width="4.8000002"
         id="rect4935"
         style="opacity:1;fill:#ffffff;fill-opacity:1;stroke:none;stroke-width:1;stroke-linejoin:round;stroke-miterlimit:4;stroke-dasharray:none;stroke-opacity:1" />
      <path
         inkscape:connector-curvature="0"
         id="path4937"
         d="m 201.6,825.16216 c -6.97395,0 -12.78634,4.95739 -14.1125,11.54062 -0.0931,0.46184 -0.1648,0.93269 -0.21249,1.40938 -0.0477,0.47712 -0.075,0.96032 -0.075,1.45 0.006,4.09051 1.7511,7.9855 4.8,10.71249 l 0,-0.003 c 2.63659,2.37 6.0548,3.6841 9.6,3.69063 4.5303,-0.005 8.79395,-2.14244 11.50937,-5.76876 l -3.8375,-2.87804 c -1.80984,2.41764 -4.65186,3.8427 -7.67187,3.84688 -5.30194,0 -9.6,-4.29807 -9.6,-9.6 0,-5.30194 4.29806,-9.6 9.6,-9.6 3.02001,0.005 5.86203,1.42923 7.67187,3.84688 l 3.83438,-2.87501 c -2.71408,-3.62661 -6.97646,-5.76474 -11.50622,-5.77187 z"
         style="opacity:1;fill:#ffffff;fill-opacity:1;stroke:none;stroke-width:0.40000001;stroke-linejoin:round;stroke-miterlimit:4;stroke-dasharray:none;stroke-opacity:1" />
    </g>
    <g
       style="fill:#1a8179;fill-opacity:1"
       transform="matrix(0.5,0,0,0.5,120,416.18107)"
       id="g4939">
      <path
         inkscape:connector-curvature="0"
         id="path4941"
         transform="translate(160,710.36218)"
         d="m 64,110 a 24,24 0 0 0 -24,24 24,24 0 0 0 24,24 24,24 0 0 0 24,-24 24,24 0 0 0 -24,-24 z m -5.984375,8.38672 c 0.533333,0 1.041484,0.0802 1.521484,0.24023 0.48,0.16 0.893568,0.32047 1.240235,0.48047 0.346666,0.16 0.692396,0.46659 1.039062,0.91992 0.373334,0.42667 0.653177,0.76 0.839844,1 0.186667,0.24 0.42737,0.68032 0.720703,1.32032 0.32,0.64 0.519609,1.06596 0.599609,1.27929 0.08,0.21334 0.267214,0.70714 0.560547,1.48047 0.293334,0.77334 0.466198,1.22604 0.519532,1.35938 l 6.640625,17.51953 c 0.213333,0.50666 0.585807,0.76172 1.11914,0.76172 0.133334,0 0.374037,-0.0535 0.720703,-0.16016 0.346667,-0.10667 0.558672,-0.20125 0.638672,-0.28125 l 0.800781,2.80078 c -1.279999,0.64 -2.360234,0.95899 -3.240234,0.95899 -0.666667,0 -1.226354,-0.15852 -1.679687,-0.47852 -0.426667,-0.32 -0.733256,-0.65333 -0.919922,-1 -0.186667,-0.37333 -0.400625,-0.92062 -0.640625,-1.64062 l -4.878906,-14.16016 -5.839844,16.80078 -3.839844,0 7.919922,-20.80078 c -0.373333,-1.04 -0.640781,-1.76016 -0.800781,-2.16016 -0.16,-0.42666 -0.413099,-0.90612 -0.759766,-1.43945 -0.346667,-0.56 -0.73349,-0.92008 -1.160156,-1.08008 -0.426667,-0.18666 -0.95961,-0.27929 -1.59961,-0.2793 l -2.160156,0.31836 0.400391,-3.27929 c 0.88,-0.32 1.624948,-0.48047 2.238281,-0.48047 z"
         style="opacity:1;fill:#1a8179;fill-opacity:1;stroke:none;stroke-width:2;stroke-linejoin:miter;stroke-miterlimit:4;stroke-dasharray:none;stroke-opacity:1" />
    </g>
    <g
       id="g4943"
       transform="matrix(0.5,0,0,0.5,148,416.18107)"
       style="fill:#1a8179;fill-opacity:1">
      <path
         style="opacity:1;fill:#1a8179;fill-opacity:1;stroke:none;stroke-width:2;stroke-linejoin:miter;stroke-miterlimit:4;stroke-dasharray:none;stroke-opacity:1"
         d="m 64,110 a 24,24 0 0 0 -24,24 24,24 0 0 0 24,24 24,24 0 0 0 24,-24 24,24 0 0 0 -24,-24 z m -5.984375,8.38672 c 0.533333,0 1.041484,0.0802 1.521484,0.24023 0.48,0.16 0.893568,0.32047 1.240235,0.48047 0.346666,0.16 0.692396,0.46659 1.039062,0.91992 0.373334,0.42667 0.653177,0.76 0.839844,1 0.186667,0.24 0.42737,0.68032 0.720703,1.32032 0.32,0.64 0.519609,1.06596 0.599609,1.27929 0.08,0.21334 0.267214,0.70714 0.560547,1.48047 0.293334,0.77334 0.466198,1.22604 0.519532,1.35938 l 6.640625,17.51953 c 0.213333,0.50666 0.585807,0.76172 1.11914,0.76172 0.133334,0 0.374037,-0.0535 0.720703,-0.16016 0.346667,-0.10667 0.558672,-0.20125 0.638672,-0.28125 l 0.800781,2.80078 c -1.279999,0.64 -2.360234,0.95899 -3.240234,0.95899 -0.666667,0 -1.226354,-0.15852 -1.679687,-0.47852 -0.426667,-0.32 -0.733256,-0.65333 -0.919922,-1 -0.186667,-0.37333 -0.400625,-0.92062 -0.640625,-1.64062 l -4.878906,-14.16016 -5.839844,16.80078 -3.839844,0 7.919922,-20.80078 c -0.373333,-1.04 -0.640781,-1.76016 -0.800781,-2.16016 -0.16,-0.42666 -0.413099,-0.90612 -0.759766,-1.43945 -0.346667,-0.56 -0.73349,-0.92008 -1.160156,-1.08008 -0.426667,-0.18666 -0.95961,-0.27929 -1.59961,-0.2793 l -2.160156,0.31836 0.400391,-3.27929 c 0.88,-0.32 1.624948,-0.48047 2.238281,-0.48047 z"
         transform="translate(160,710.36218)"
         id="path4945"
         inkscape:connector-curvature="0" />
    </g>
    <g
       id="g4951"
       transform="matrix(0.5,0,0,0.5,120,480.18107)"
       style="fill:#1a8179;fill-opacity:1">
      <path
         style="opacity:1;fill:#1a8179;fill-opacity:1;stroke:none;stroke-width:2;stroke-linejoin:miter;stroke-miterlimit:4;stroke-dasharray:none;stroke-opacity:1"
         d="m 64,110 a 24,24 0 0 0 -24,24 24,24 0 0 0 24,24 24,24 0 0 0 24,-24 24,24 0 0 0 -24,-24 z m -5.984375,8.38672 c 0.533333,0 1.041484,0.0802 1.521484,0.24023 0.48,0.16 0.893568,0.32047 1.240235,0.48047 0.346666,0.16 0.692396,0.46659 1.039062,0.91992 0.373334,0.42667 0.653177,0.76 0.839844,1 0.186667,0.24 0.42737,0.68032 0.720703,1.32032 0.32,0.64 0.519609,1.06596 0.599609,1.27929 0.08,0.21334 0.267214,0.70714 0.560547,1.48047 0.293334,0.77334 0.466198,1.22604 0.519532,1.35938 l 6.640625,17.51953 c 0.213333,0.50666 0.585807,0.76172 1.11914,0.76172 0.133334,0 0.374037,-0.0535 0.720703,-0.16016 0.346667,-0.10667 0.558672,-0.20125 0.638672,-0.28125 l 0.800781,2.80078 c -1.279999,0.64 -2.360234,0.95899 -3.240234,0.95899 -0.666667,0 -1.226354,-0.15852 -1.679687,-0.47852 -0.426667,-0.32 -0.733256,-0.65333 -0.919922,-1 -0.186667,-0.37333 -0.400625,-0.92062 -0.640625,-1.64062 l -4.878906,-14.16016 -5.839844,16.80078 -3.839844,0 7.919922,-20.80078 c -0.373333,-1.04 -0.640781,-1.76016 -0.800781,-2.16016 -0.16,-0.42666 -0.413099,-0.90612 -0.759766,-1.43945 -0.346667,-0.56 -0.73349,-0.92008 -1.160156,-1.08008 -0.426667,-0.18666 -0.95961,-0.27929 -1.59961,-0.2793 l -2.160156,0.31836 0.400391,-3.27929 c 0.88,-0.32 1.624948,-0.48047 2.238281,-0.48047 z"
         transform="translate(160,710.36218)"
         id="path4953"
         inkscape:connector-curvature="0" />
    </g>
    <g
       style="fill:#1a8179;fill-opacity:1"
       transform="matrix(0.5,0,0,0.5,148,480.18107)"
       id="g4955">
      <path
         inkscape:connector-curvature="0"
         id="path4957"
         transform="translate(160,710.36218)"
         d="m 64,110 a 24,24 0 0 0 -24,24 24,24 0 0 0 24,24 24,24 0 0 0 24,-24 24,24 0 0 0 -24,-24 z m -5.984375,8.38672 c 0.533333,0 1.041484,0.0802 1.521484,0.24023 0.48,0.16 0.893568,0.32047 1.240235,0.48047 0.346666,0.16 0.692396,0.46659 1.039062,0.91992 0.373334,0.42667 0.653177,0.76 0.839844,1 0.186667,0.24 0.42737,0.68032 0.720703,1.32032 0.32,0.64 0.519609,1.06596 0.599609,1.27929 0.08,0.21334 0.267214,0.70714 0.560547,1.48047 0.293334,0.77334 0.466198,1.22604 0.519532,1.35938 l 6.640625,17.51953 c 0.213333,0.50666 0.585807,0.76172 1.11914,0.76172 0.133334,0 0.374037,-0.0535 0.720703,-0.16016 0.346667,-0.10667 0.558672,-0.20125 0.638672,-0.28125 l 0.800781,2.80078 c -1.279999,0.64 -2.360234,0.95899 -3.240234,0.95899 -0.666667,0 -1.226354,-0.15852 -1.679687,-0.47852 -0.426667,-0.32 -0.733256,-0.65333 -0.919922,-1 -0.186667,-0.37333 -0.400625,-0.92062 -0.640625,-1.64062 l -4.878906,-14.16016 -5.839844,16.80078 -3.839844,0 7.919922,-20.80078 c -0.373333,-1.04 -0.640781,-1.76016 -0.800781,-2.16016 -0.16,-0.42666 -0.413099,-0.90612 -0.759766,-1.43945 -0.346667,-0.56 -0.73349,-0.92008 -1.160156,-1.08008 -0.426667,-0.18666 -0.95961,-0.27929 -1.59961,-0.2793 l -2.160156,0.31836 0.400391,-3.27929 c 0.88,-0.32 1.624948,-0.48047 2.238281,-0.48047 z"
         style="opacity:1;fill:#1a8179;fill-opacity:1;stroke:none;stroke-width:2;stroke-linejoin:miter;stroke-miterlimit:4;stroke-dasharray:none;stroke-opacity:1" />
    </g>
    <g
       style="fill:#1a8179;fill-opacity:1"
       transform="matrix(0.5,0,0,0.5,120,546.18107)"
       id="g4959">
      <path
         inkscape:connector-curvature="0"
         id="path4961"
         transform="translate(160,710.36218)"
         d="m 64,110 a 24,24 0 0 0 -24,24 24,24 0 0 0 24,24 24,24 0 0 0 24,-24 24,24 0 0 0 -24,-24 z m -5.984375,8.38672 c 0.533333,0 1.041484,0.0802 1.521484,0.24023 0.48,0.16 0.893568,0.32047 1.240235,0.48047 0.346666,0.16 0.692396,0.46659 1.039062,0.91992 0.373334,0.42667 0.653177,0.76 0.839844,1 0.186667,0.24 0.42737,0.68032 0.720703,1.32032 0.32,0.64 0.519609,1.06596 0.599609,1.27929 0.08,0.21334 0.267214,0.70714 0.560547,1.48047 0.293334,0.77334 0.466198,1.22604 0.519532,1.35938 l 6.640625,17.51953 c 0.213333,0.50666 0.585807,0.76172 1.11914,0.76172 0.133334,0 0.374037,-0.0535 0.720703,-0.16016 0.346667,-0.10667 0.558672,-0.20125 0.638672,-0.28125 l 0.800781,2.80078 c -1.279999,0.64 -2.360234,0.95899 -3.240234,0.95899 -0.666667,0 -1.226354,-0.15852 -1.679687,-0.47852 -0.426667,-0.32 -0.733256,-0.65333 -0.919922,-1 -0.186667,-0.37333 -0.400625,-0.92062 -0.640625,-1.64062 l -4.878906,-14.16016 -5.839844,16.80078 -3.839844,0 7.919922,-20.80078 c -0.373333,-1.04 -0.640781,-1.76016 -0.800781,-2.16016 -0.16,-0.42666 -0.413099,-0.90612 -0.759766,-1.43945 -0.346667,-0.56 -0.73349,-0.92008 -1.160156,-1.08008 -0.426667,-0.18666 -0.95961,-0.27929 -1.59961,-0.2793 l -2.160156,0.31836 0.400391,-3.27929 c 0.88,-0.32 1.624948,-0.48047 2.238281,-0.48047 z"
         style="opacity:1;fill:#1a8179;fill-opacity:1;stroke:none;stroke-width:2;stroke-linejoin:miter;stroke-miterlimit:4;stroke-dasharray:none;stroke-opacity:1" />
    </g>
    <g
       id="g4963"
       transform="matrix(0.5,0,0,0.5,148,546.18107)"
       style="fill:#1a8179;fill-opacity:1">
      <path
         style="opacity:1;fill:#1a8179;fill-opacity:1;stroke:none;stroke-width:2;stroke-linejoin:miter;stroke-miterlimit:4;stroke-dasharray:none;stroke-opacity:1"
         d="m 64,110 a 24,24 0 0 0 -24,24 24,24 0 0 0 24,24 24,24 0 0 0 24,-24 24,24 0 0 0 -24,-24 z m -5.984375,8.38672 c 0.533333,0 1.041484,0.0802 1.521484,0.24023 0.48,0.16 0.893568,0.32047 1.240235,0.48047 0.346666,0.16 0.692396,0.46659 1.039062,0.91992 0.373334,0.42667 0.653177,0.76 0.839844,1 0.186667,0.24 0.42737,0.68032 0.720703,1.32032 0.32,0.64 0.519609,1.06596 0.599609,1.27929 0.08,0.21334 0.267214,0.70714 0.560547,1.48047 0.293334,0.77334 0.466198,1.22604 0.519532,1.35938 l 6.640625,17.51953 c 0.213333,0.50666 0.585807,0.76172 1.11914,0.76172 0.133334,0 0.374037,-0.0535 0.720703,-0.16016 0.346667,-0.10667 0.558672,-0.20125 0.638672,-0.28125 l 0.800781,2.80078 c -1.279999,0.64 -2.360234,0.95899 -3.240234,0.95899 -0.666667,0 -1.226354,-0.15852 -1.679687,-0.47852 -0.426667,-0.32 -0.733256,-0.65333 -0.919922,-1 -0.186667,-0.37333 -0.400625,-0.92062 -0.640625,-1.64062 l -4.878906,-14.16016 -5.839844,16.80078 -3.839844,0 7.919922,-20.80078 c -0.373333,-1.04 -0.640781,-1.76016 -0.800781,-2.16016 -0.16,-0.42666 -0.413099,-0.90612 -0.759766,-1.43945 -0.346667,-0.56 -0.73349,-0.92008 -1.160156,-1.08008 -0.426667,-0.18666 -0.95961,-0.27929 -1.59961,-0.2793 l -2.160156,0.31836 0.400391,-3.27929 c 0.88,-0.32 1.624948,-0.48047 2.238281,-0.48047 z"
         transform="translate(160,710.36218)"
         id="path4965"
         inkscape:connector-curvature="0" />
    </g>
    <text
       sodipodi:linespacing="125%"
       id="text4971"
       y="828.54279"
       x="269.7832"
       style="font-style:normal;font-weight:normal;font-size:40px;line-height:125%;font-family:Sans;letter-spacing:0px;word-spacing:0px;fill:#000000;fill-opacity:1;stroke:none;stroke-width:1px;stroke-linecap:butt;stroke-linejoin:miter;stroke-opacity:1"
       xml:space="preserve"><tspan
         style="font-style:normal;font-variant:normal;font-weight:normal;font-stretch:normal;font-size:10px;font-family:FreeSans;-inkscape-font-specification:FreeSans"
         y="828.54279"
         x="269.7832"
         id="tspan4973"
         sodipodi:role="line">2</tspan></text>
    <text
       xml:space="preserve"
       style="font-style:normal;font-weight:normal;font-size:40px;line-height:125%;font-family:Sans;letter-spacing:0px;word-spacing:0px;fill:#000000;fill-opacity:1;stroke:none;stroke-width:1px;stroke-linecap:butt;stroke-linejoin:miter;stroke-opacity:1"
       x="241.7832"
       y="828.54279"
       id="text4975"
       sodipodi:linespacing="125%"><tspan
         sodipodi:role="line"
         id="tspan4977"
         x="241.7832"
         y="828.54279"
         style="font-style:normal;font-variant:normal;font-weight:normal;font-stretch:normal;font-size:10px;font-family:FreeSans;-inkscape-font-specification:FreeSans">1</tspan></text>
    <text
       xml:space="preserve"
       style="font-style:normal;font-weight:normal;font-size:40px;line-height:125%;font-family:Sans;letter-spacing:0px;word-spacing:0px;fill:#000000;fill-opacity:1;stroke:none;stroke-width:1px;stroke-linecap:butt;stroke-linejoin:miter;stroke-opacity:1"
       x="269.7832"
       y="892.54279"
       id="text4979"
       sodipodi:linespacing="125%"><tspan
         sodipodi:role="line"
         id="tspan4981"
         x="269.7832"
         y="892.54279"
         style="font-style:normal;font-variant:normal;font-weight:normal;font-stretch:normal;font-size:10px;line-height:125%;font-family:FreeSans;-inkscape-font-specification:'FreeSans, Normal';text-align:start;writing-mode:lr-tb;text-anchor:start;fill:#000000;fill-opacity:1">2</tspan></text>
    <text
       sodipodi:linespacing="125%"
       id="text4983"
       y="892.54279"
       x="241.7832"
       style="font-style:normal;font-weight:normal;font-size:40px;line-height:125%;font-family:Sans;letter-spacing:0px;word-spacing:0px;fill:#1a237e;fill-opacity:1;stroke:none;stroke-width:1px;stroke-linecap:butt;stroke-linejoin:miter;stroke-opacity:1"
       xml:space="preserve"><tspan
         style="font-style:normal;font-variant:normal;font-weight:600;font-stretch:normal;font-size:10px;line-height:125%;font-family:FreeSans;-inkscape-font-specification:'FreeSans, Semi-Bold';text-align:start;writing-mode:lr-tb;text-anchor:start;fill:#1a237e;fill-opacity:1"
         y="892.54279"
         x="241.7832"
         id="tspan4985"
         sodipodi:role="line">1</tspan></text>
    <text
       sodipodi:linespacing="125%"
       id="text4987"
       y="956.54279"
       x="269.7832"
       style="font-style:normal;font-weight:normal;font-size:40px;line-height:125%;font-family:Sans;letter-spacing:0px;word-spacing:0px;fill:#000000;fill-opacity:1;stroke:none;stroke-width:1px;stroke-linecap:butt;stroke-linejoin:miter;stroke-opacity:1"
       xml:space="preserve"><tspan
         style="font-style:normal;font-variant:normal;font-weight:normal;font-stretch:normal;font-size:10px;font-family:FreeSans;-inkscape-font-specification:FreeSans"
         y="956.54279"
         x="269.7832"
         id="tspan4989"
         sodipodi:role="line">2</tspan></text>
    <text
       xml:space="preserve"
       style="font-style:normal;font-weight:normal;font-size:40px;line-height:125%;font-family:Sans;letter-spacing:0px;word-spacing:0px;fill:#000000;fill-opacity:1;stroke:none;stroke-width:1px;stroke-linecap:butt;stroke-linejoin:miter;stroke-opacity:1"
       x="241.7832"
       y="956.54279"
       id="text4991"
       sodipodi:linespacing="125%"><tspan
         sodipodi:role="line"
         id="tspan4993"
         x="241.7832"
         y="956.54279"
         style="font-style:normal;font-variant:normal;font-weight:normal;font-stretch:normal;font-size:10px;font-family:FreeSans;-inkscape-font-specification:FreeSans">1</tspan></text>
    <path
       inkscape:connector-curvature="0"
       id="path4995"
       d="m 96,814.36216 a 16,16 0 0 0 -16,16 16,16 0 0 0 9.91276,14.78906 l 0,-19.37109 c 0,-3.95834 1.84896,-5.9375 5.54687,-5.9375 3.76736,0 5.65105,1.671 5.65105,5.01302 0,2.37847 -0.74653,4.00173 -2.23959,4.86979 2.43056,0.78125 3.64584,2.33073 3.64584,4.64843 0,4.11459 -2.09202,6.17188 -6.27604,6.17188 -1.84028,0 -3.1467,-0.39062 -3.91928,-1.17188 l 0,6.44532 -0.3776,0 A 16,16 0 0 0 96,846.36216 a 16,16 0 0 0 16,-16 16,16 0 0 0 -16,-16 z m -0.27995,7.43359 c -2.26562,0 -3.39844,1.35417 -3.39844,4.0625 l 0,10.39062 c 0.96355,1.50174 2.30036,2.25261 4.01042,2.25261 2.5,0 3.75,-1.36285 3.75,-4.08854 0,-2.44792 -2.01389,-3.57639 -6.04166,-3.38542 l 0,-2.21354 c 3.15104,0 4.72656,-1.38889 4.72656,-4.16667 0,-1.90104 -1.01562,-2.85156 -3.04688,-2.85156 z"
       style="opacity:1;fill:#8f237e;fill-opacity:1;stroke:none;stroke-width:2;stroke-linejoin:miter;stroke-miterlimit:4;stroke-dasharray:none;stroke-opacity:1" />
    <text
       sodipodi:linespacing="125%"
       id="text4997"
       y="818.34698"
       x="110.17058"
       style="font-style:normal;font-weight:normal;font-size:40px;line-height:125%;font-family:Sans;letter-spacing:0px;word-spacing:0px;fill:#000000;fill-opacity:0.85098039;stroke:none;stroke-width:1px;stroke-linecap:butt;stroke-linejoin:miter;stroke-opacity:1"
       xml:space="preserve"><tspan
         style="font-style:normal;font-variant:normal;font-weight:normal;font-stretch:normal;font-size:10px;font-family:FreeSans;-inkscape-font-specification:FreeSans;fill:#000000;fill-opacity:0.85098039"
         y="818.34698"
         x="110.17058"
         id="tspan4999"
         sodipodi:role="line">2</tspan></text>
    <text
       xml:space="preserve"
       style="font-style:normal;font-weight:normal;font-size:40px;line-height:125%;font-family:Sans;letter-spacing:0px;word-spacing:0px;fill:#8f237e;fill-opacity:1;stroke:none;stroke-width:1px;stroke-linecap:butt;stroke-linejoin:miter;stroke-opacity:1"
       x="110.17058"
       y="848.34698"
       id="text5001"
       sodipodi:linespacing="125%"><tspan
         sodipodi:role="line"
         id="tspan5003"
         x="110.17058"
         y="848.34698"
         style="font-style:normal;font-variant:normal;font-weight:normal;font-stretch:normal;font-size:10px;font-family:FreeSans;-inkscape-font-specification:FreeSans;fill:#8f237e;fill-opacity:1">4</tspan></text>
    <path
       style="opacity:1;fill:#8f237e;fill-opacity:1;stroke:none;stroke-width:2;stroke-linejoin:miter;stroke-miterlimit:4;stroke-dasharray:none;stroke-opacity:1"
       d="m 96,862.70534 a 16,16 0 0 0 -16,16 16,16 0 0 0 9.91276,14.78906 l 0,-19.37109 c 0,-3.95834 1.84896,-5.9375 5.54687,-5.9375 3.76736,0 5.65105,1.671 5.65105,5.01302 0,2.37847 -0.74653,4.00173 -2.23959,4.86979 2.43056,0.78125 3.64584,2.33073 3.64584,4.64843 0,4.11459 -2.09202,6.17188 -6.27604,6.17188 -1.84028,0 -3.1467,-0.39062 -3.91928,-1.17188 l 0,6.44532 -0.3776,0 A 16,16 0 0 0 96,894.70534 a 16,16 0 0 0 16,-16 16,16 0 0 0 -16,-16 z m -0.27995,7.43359 c -2.26562,0 -3.39844,1.35417 -3.39844,4.0625 l 0,10.39062 c 0.96355,1.50174 2.30036,2.25261 4.01042,2.25261 2.5,0 3.75,-1.36285 3.75,-4.08854 0,-2.44792 -2.01389,-3.57639 -6.04166,-3.38542 l 0,-2.21354 c 3.15104,0 4.72656,-1.38889 4.72656,-4.16667 0,-1.90104 -1.01562,-2.85156 -3.04688,-2.85156 z"
       id="path5005"
       inkscape:connector-curvature="0" />
    <text
       xml:space="preserve"
       style="font-style:normal;font-weight:normal;font-size:40px;line-height:125%;font-family:Sans;letter-spacing:0px;word-spacing:0px;fill:#000000;fill-opacity:0.85098039;stroke:none;stroke-width:1px;stroke-linecap:butt;stroke-linejoin:miter;stroke-opacity:1"
       x="110.17058"
       y="866.69019"
       id="text5007"
       sodipodi:linespacing="125%"><tspan
         sodipodi:role="line"
         id="tspan5009"
         x="110.17058"
         y="866.69019"
         style="font-style:normal;font-variant:normal;font-weight:normal;font-stretch:normal;font-size:10px;font-family:FreeSans;-inkscape-font-specification:FreeSans;fill:#000000;fill-opacity:0.85098039">2</tspan></text>
    <text
       sodipodi:linespacing="125%"
       id="text5011"
       y="896.69019"
       x="110.17058"
       style="font-style:normal;font-weight:normal;font-size:40px;line-height:125%;font-family:Sans;letter-spacing:0px;word-spacing:0px;fill:#8f237e;fill-opacity:1;stroke:none;stroke-width:1px;stroke-linecap:butt;stroke-linejoin:miter;stroke-opacity:1"
       xml:space="preserve"><tspan
         style="font-style:normal;font-variant:normal;font-weight:normal;font-stretch:normal;font-size:10px;font-family:FreeSans;-inkscape-font-specification:FreeSans;fill:#8f237e;fill-opacity:1"
         y="896.69019"
         x="110.17058"
         id="tspan5013"
         sodipodi:role="line">3</tspan></text>
    <path
       inkscape:connector-curvature="0"
       id="path5015"
       d="m 96,911.02832 a 16,16 0 0 0 -16,16 16,16 0 0 0 9.91276,14.78906 l 0,-19.37109 c 0,-3.95834 1.84896,-5.9375 5.54687,-5.9375 3.76736,0 5.65105,1.671 5.65105,5.01302 0,2.37847 -0.74653,4.00173 -2.23959,4.86979 2.43056,0.78125 3.64584,2.33073 3.64584,4.64843 0,4.11459 -2.09202,6.17188 -6.27604,6.17188 -1.84028,0 -3.1467,-0.39062 -3.91928,-1.17188 l 0,6.44532 -0.3776,0 A 16,16 0 0 0 96,943.02832 a 16,16 0 0 0 16,-16 16,16 0 0 0 -16,-16 z m -0.27995,7.43359 c -2.26562,0 -3.39844,1.35417 -3.39844,4.0625 l 0,10.39062 c 0.96355,1.50174 2.30036,2.25261 4.01042,2.25261 2.5,0 3.75,-1.36285 3.75,-4.08854 0,-2.44792 -2.01389,-3.57639 -6.04166,-3.38542 l 0,-2.21354 c 3.15104,0 4.72656,-1.38889 4.72656,-4.16667 0,-1.90104 -1.01562,-2.85156 -3.04688,-2.85156 z"
       style="opacity:1;fill:#8f237e;fill-opacity:1;stroke:none;stroke-width:2;stroke-linejoin:miter;stroke-miterlimit:4;stroke-dasharray:none;stroke-opacity:1" />
    <text
       sodipodi:linespacing="125%"
       id="text5017"
       y="915.01318"
       x="110.17058"
       style="font-style:normal;font-weight:normal;font-size:40px;line-height:125%;font-family:Sans;letter-spacing:0px;word-spacing:0px;fill:#000000;fill-opacity:0.85098039;stroke:none;stroke-width:1px;stroke-linecap:butt;stroke-linejoin:miter;stroke-opacity:1"
       xml:space="preserve"><tspan
         style="font-style:normal;font-variant:normal;font-weight:normal;font-stretch:normal;font-size:10px;font-family:FreeSans;-inkscape-font-specification:FreeSans;fill:#000000;fill-opacity:0.85098039"
         y="915.01318"
         x="110.17058"
         id="tspan5019"
         sodipodi:role="line">1</tspan></text>
    <text
       xml:space="preserve"
       style="font-style:normal;font-weight:normal;font-size:40px;line-height:125%;font-family:Sans;letter-spacing:0px;word-spacing:0px;fill:#8f237e;fill-opacity:1;stroke:none;stroke-width:1px;stroke-linecap:butt;stroke-linejoin:miter;stroke-opacity:1"
       x="110.17058"
       y="945.01318"
       id="text5021"
       sodipodi:linespacing="125%"><tspan
         sodipodi:role="line"
         id="tspan5023"
         x="110.17058"
         y="945.01318"
         style="font-style:normal;font-variant:normal;font-weight:normal;font-stretch:normal;font-size:10px;font-family:FreeSans;-inkscape-font-specification:FreeSans;fill:#8f237e;fill-opacity:1">2</tspan></text>
    <path
       style="opacity:1;fill:#8f237e;fill-opacity:1;stroke:none;stroke-width:2;stroke-linejoin:miter;stroke-miterlimit:4;stroke-dasharray:none;stroke-opacity:1"
       d="m 96,960.36216 c -8.836556,0 -16,7.16344 -16,16 0.0027,6.482 3.916034,12.32191 9.910156,14.78906 l 0.002,-19.37109 c 0,-3.9583 1.848965,-5.9375 5.546875,-5.9375 3.76736,0 5.652339,1.67167 5.652339,5.01367 0,2.3785 -0.74717,4.00104 -2.240229,4.86914 2.430559,0.7812 3.646479,2.33074 3.646479,4.64844 0,4.1146 -2.09332,6.17187 -6.277339,6.17187 -1.84028,0 -3.145388,-0.39057 -3.917968,-1.17187 l -0.0039,6.52541 c 1.205108,0.29656 2.440628,0.4519 3.681641,0.46289 8.836556,0 15.999996,-7.16344 15.999996,-16 0,-8.83656 -7.16344,-16 -15.999996,-16 z m -0.279297,7.43359 c -2.26562,0 -3.398437,1.3542 -3.398437,4.0625 l 0,10.39063 c 0.96355,1.5018 2.299705,2.25195 4.009765,2.25195 2.5,0 3.749999,-1.36219 3.749999,-4.08789 0,-2.4479 -2.013244,-3.57576 -6.041014,-3.38476 l 0,-2.21485 c 3.15104,0 4.726562,-1.38831 4.726562,-4.16601 0,-1.9011 -1.015615,-2.85157 -3.046875,-2.85157 z"
       id="path5025"
       inkscape:connector-curvature="0"
       sodipodi:nodetypes="scccsscsscccsssscssccsss" />
    <text
       sodipodi:linespacing="125%"
       id="text5031"
       y="994.34692"
       x="110.17058"
       style="font-style:normal;font-weight:normal;font-size:40px;line-height:125%;font-family:Sans;letter-spacing:0px;word-spacing:0px;fill:#8f237e;fill-opacity:1;stroke:none;stroke-width:1px;stroke-linecap:butt;stroke-linejoin:miter;stroke-opacity:1"
       xml:space="preserve"><tspan
         style="font-style:normal;font-variant:normal;font-weight:normal;font-stretch:normal;font-size:10px;font-family:FreeSans;-inkscape-font-specification:FreeSans;fill:#8f237e;fill-opacity:1"
         y="994.34692"
         x="110.17058"
         id="tspan5033"
         sodipodi:role="line">1</tspan></text>
    <text
       xml:space="preserve"
       style="font-style:normal;font-weight:normal;font-size:40px;line-height:125%;font-family:Sans;letter-spacing:0px;word-spacing:0px;fill:#000000;fill-opacity:1;stroke:none;stroke-width:1px;stroke-linecap:butt;stroke-linejoin:miter;stroke-opacity:1"
       x="60"
       y="1022.3622"
       id="text5039"
       sodipodi:linespacing="125%"><tspan
         sodipodi:role="line"
         id="tspan5041"
         x="60"
         y="1022.3622"
         style="font-style:normal;font-variant:normal;font-weight:normal;font-stretch:normal;font-size:12.5px;line-height:125%;font-family:FreeSans;-inkscape-font-specification:'FreeSans, Normal';text-align:start;writing-mode:lr-tb;text-anchor:start">Batch Queue</tspan></text>
    <text
       sodipodi:linespacing="125%"
       id="text5045"
       y="1022.3622"
       x="160.5"
       style="font-style:normal;font-weight:normal;font-size:40px;line-height:125%;font-family:Sans;letter-spacing:0px;word-spacing:0px;fill:#000000;fill-opacity:1;stroke:none;stroke-width:1px;stroke-linecap:butt;stroke-linejoin:miter;stroke-opacity:1"
       xml:space="preserve"><tspan
         style="font-style:normal;font-variant:normal;font-weight:normal;font-stretch:normal;font-size:12.5px;line-height:125%;font-family:FreeSans;-inkscape-font-specification:'FreeSans, Normal';text-align:start;writing-mode:lr-tb;text-anchor:start"
         y="1022.3622"
         x="160.5"
         id="tspan5047"
         sodipodi:role="line">Compute Context Pool</tspan></text>
    <text
       xml:space="preserve"
       style="font-style:normal;font-weight:normal;font-size:40px;line-height:125%;font-family:Sans;letter-spacing:0px;word-spacing:0px;fill:#798699;fill-opacity:1;stroke:none;stroke-width:1px;stroke-linecap:butt;stroke-linejoin:miter;stroke-opacity:1"
       x="-1006.3599"
       y="56.374039"
       id="text5069"
       sodipodi:linespacing="125%"
       transform="matrix(0,-1,1,0,0,0)"><tspan
         sodipodi:role="line"
         id="tspan5071"
         x="-1006.3599"
         y="56.374039"
         style="font-style:normal;font-variant:normal;font-weight:600;font-stretch:normal;font-size:22.5px;line-height:125%;font-family:FreeSans;-inkscape-font-specification:'FreeSans, Semi-Bold';text-align:start;writing-mode:lr-tb;text-anchor:start;fill:#a1a8b5;fill-opacity:1">Computer</tspan></text>
    <path
       sodipodi:nodetypes="cccccccc"
       inkscape:connector-curvature="0"
       id="path5079"
       d="m 295,894.3619 0,6 -12,0 0,4 12,0 0,6.0003 12,-8.0003 z"
       style="opacity:1;fill:#1a237e;fill-opacity:1;stroke:none;stroke-width:2;stroke-linejoin:miter;stroke-miterlimit:4;stroke-dasharray:none;stroke-opacity:1" />
    <path
       style="opacity:1;fill:#798699;fill-opacity:1;stroke:none;stroke-width:2;stroke-linejoin:miter;stroke-miterlimit:4;stroke-dasharray:none;stroke-opacity:1"
       d="m 154.75,962.36216 0,6 -12.75,0 0,4 12.75,0 0,6 12,-8 -12,-8 z"
       id="path5098"
       inkscape:connector-curvature="0" />
    <path
       style="opacity:1;fill:#798699;fill-opacity:1;stroke:none;stroke-width:2;stroke-linejoin:miter;stroke-miterlimit:4;stroke-dasharray:none;stroke-opacity:1"
       d="m 154.75,832.36216 0,6 -12.75,0 -4,0 0,62 4,0 0,-58 12.75,0 0,6 12,-8 -12,-8 z"
       id="path5100"
       inkscape:connector-curvature="0" />
    <path
       style="opacity:1;fill:#1a237e;fill-opacity:1;stroke:none;stroke-width:2;stroke-linejoin:round;stroke-miterlimit:4;stroke-dasharray:none;stroke-dashoffset:0;stroke-opacity:1"
       d="m 244.5,882.86216 a 6,6 0 0 0 -6,6 6,6 0 0 0 6,6 6,6 0 0 0 6,-6 6,6 0 0 0 -6,-6 z m 0,1 a 5,5 0 0 1 5,5 5,5 0 0 1 -5,5 5,5 0 0 1 -5,-5 5,5 0 0 1 5,-5 z"
       id="path5113"
       inkscape:connector-curvature="0" />
    <text
       xml:space="preserve"
       style="font-style:normal;font-weight:normal;font-size:40px;line-height:125%;font-family:Sans;letter-spacing:0px;word-spacing:0px;fill:#1a237e;fill-opacity:1;stroke:none;stroke-width:1px;stroke-linecap:butt;stroke-linejoin:miter;stroke-opacity:1"
       x="109.7832"
       y="964.54279"
       id="text5140"
       sodipodi:linespacing="125%"><tspan
         sodipodi:role="line"
         id="tspan5142"
         x="109.7832"
         y="964.54279"
         style="font-style:normal;font-variant:normal;font-weight:600;font-stretch:normal;font-size:10px;line-height:125%;font-family:FreeSans;-inkscape-font-specification:'FreeSans, Semi-Bold';text-align:start;writing-mode:lr-tb;text-anchor:start;fill:#1a237e;fill-opacity:1">1</tspan></text>
    <path
       inkscape:connector-curvature="0"
       id="path5144"
       d="m 112.5,954.86216 a 6,6 0 0 0 -6,6 6,6 0 0 0 6,6 6,6 0 0 0 6,-6 6,6 0 0 0 -6,-6 z m 0,1 a 5,5 0 0 1 5,5 5,5 0 0 1 -5,5 5,5 0 0 1 -5,-5 5,5 0 0 1 5,-5 z"
       style="opacity:1;fill:#1a237e;fill-opacity:1;stroke:none;stroke-width:2;stroke-linejoin:round;stroke-miterlimit:4;stroke-dasharray:none;stroke-dashoffset:0;stroke-opacity:1" />
    <text
       xml:space="preserve"
       style="font-style:normal;font-weight:normal;font-size:40px;line-height:125%;font-family:Sans;letter-spacing:0px;word-spacing:0px;fill:#c86e2a;fill-opacity:1;stroke:none;stroke-width:1px;stroke-linecap:butt;stroke-linejoin:miter;stroke-opacity:1"
       x="340.17059"
       y="920.34692"
       id="text5147"
       sodipodi:linespacing="125%"><tspan
         sodipodi:role="line"
         id="tspan5149"
         x="340.17059"
         y="920.34692"
         style="font-style:normal;font-variant:normal;font-weight:normal;font-stretch:normal;font-size:10px;font-family:FreeSans;-inkscape-font-specification:FreeSans;fill:#c86e2a;fill-opacity:1">1</tspan></text>
    <text
       sodipodi:linespacing="125%"
       id="text5151"
       y="890.54279"
       x="339.7832"
       style="font-style:normal;font-weight:normal;font-size:40px;line-height:125%;font-family:Sans;letter-spacing:0px;word-spacing:0px;fill:#000000;fill-opacity:1;stroke:none;stroke-width:1px;stroke-linecap:butt;stroke-linejoin:miter;stroke-opacity:1"
       xml:space="preserve"><tspan
         style="font-style:normal;font-variant:normal;font-weight:normal;font-stretch:normal;font-size:10px;line-height:125%;font-family:FreeSans;-inkscape-font-specification:'FreeSans, Normal';text-align:start;writing-mode:lr-tb;text-anchor:start;fill:#000000;fill-opacity:1"
         y="890.54279"
         x="339.7832"
         id="tspan5153"
         sodipodi:role="line">1</tspan></text>
    <path
       sodipodi:nodetypes="cccccccc"
       inkscape:connector-curvature="0"
       id="path5155"
       d="m 98,758.36216 0,32 6,0 -8,12 -8,-12 6,0 0,-32 z"
       style="display:inline;opacity:1;fill:#1a237e;fill-opacity:1;stroke:none" />
    <text
       xml:space="preserve"
       style="font-style:normal;font-weight:normal;font-size:40px;line-height:125%;font-family:Sans;letter-spacing:0px;word-spacing:0px;fill:#000000;fill-opacity:1;stroke:none;stroke-width:1px;stroke-linecap:butt;stroke-linejoin:miter;stroke-opacity:1"
       x="393"
       y="716.36218"
       id="text5168"
       sodipodi:linespacing="125%"><tspan
         sodipodi:role="line"
         id="tspan5170"
         x="393"
         y="716.36218"
         style="font-style:normal;font-variant:normal;font-weight:normal;font-stretch:normal;font-size:12.5px;line-height:125%;font-family:FreeSans;-inkscape-font-specification:'FreeSans, Normal';text-align:start;writing-mode:lr-tb;text-anchor:start">Submitting batch</tspan></text>
    <text
       sodipodi:linespacing="125%"
       id="text5172"
       y="892.36218"
       x="369"
       style="font-style:normal;font-weight:normal;font-size:40px;line-height:125%;font-family:Sans;letter-spacing:0px;word-spacing:0px;fill:#000000;fill-opacity:1;stroke:none;stroke-width:1px;stroke-linecap:butt;stroke-linejoin:miter;stroke-opacity:1"
       xml:space="preserve"><tspan
         style="font-style:normal;font-variant:normal;font-weight:normal;font-stretch:normal;font-size:12.5px;line-height:125%;font-family:FreeSans;-inkscape-font-specification:'FreeSans, Normal';text-align:start;writing-mode:lr-tb;text-anchor:start"
         y="892.36218"
         x="369"
         id="tspan5174"
         sodipodi:role="line">Returning processed batch</tspan></text>
  </g>
</svg>
